<svg x="0" y="0" width="250" height="250" viewBox="0 0 350 350" xmlns="http://www.w3.org/2000/svg" xmlns:xlink="http://www.w3.org/1999/xlink" xmlns:fi="http://pattern.flaticon.com/"><rect x="0px" y="0px" width="100%" height="100%" opacity="1" fill="#0da6ff"/><defs><g transform="matrix(0.14932137727737427 -0.09189008176326752 0.09189008176326752 0.14932137727737427 101.9183120727539 100.2635498046875)" id="L1_1"><path d="M400.186,92.376h-17.95V75.392c0-3.804-2.848-7.005-6.625-7.449L271.611,55.729c-23.323-2.74-46.669,1.16-67.769,11.282   c-21.101-10.122-44.443-14.023-67.769-11.282l-104,12.214c-3.777,0.444-6.625,3.645-6.625,7.449v16.984H7.5   c-4.143,0-7.5,3.358-7.5,7.5v245.432c0,4.142,3.357,7.5,7.5,7.5h392.686c4.143,0,7.5-3.358,7.5-7.5V99.876   C407.686,95.734,404.328,92.376,400.186,92.376z M269.861,70.627l97.374,11.436v223.057l-95.624-11.23   c-20.593-2.419-41.202,0.347-60.269,7.993V80.065C229.613,71.53,249.748,68.265,269.861,70.627z M137.824,70.627   c20.112-2.363,40.249,0.903,58.519,9.438v221.82c-14.584-5.848-30.068-8.847-45.758-8.847c-4.823,0-9.668,0.283-14.511,0.851   l-95.625,11.23V82.063L137.824,70.627z M392.686,337.808H15V107.376h10.449v206.176c0,2.142,0.915,4.181,2.516,5.604   c1.6,1.423,3.733,2.095,5.859,1.845l104-12.214c21.608-2.539,43.248,1.412,62.567,11.424c2.164,1.122,4.738,1.122,6.902,0   c19.318-10.012,40.95-13.963,62.567-11.424l103.999,12.214c0.292,0.034,0.584,0.051,0.875,0.051c1.827,0,3.604-0.668,4.984-1.896   c1.601-1.423,2.516-3.462,2.516-5.604V107.376h10.45V337.808z" fill="#ffffff"/><path d="M228.616,112.878c13.442-3.652,27.276-4.679,41.107-3.056l78.085,9.168c0.298,0.035,0.593,0.052,0.885,0.052   c3.751,0,6.991-2.809,7.439-6.626c0.482-4.114-2.461-7.84-6.574-8.323l-78.086-9.168c-15.75-1.849-31.491-0.678-46.788,3.479   c-3.998,1.086-6.357,5.207-5.271,9.204C220.499,111.605,224.623,113.963,228.616,112.878z" fill="#ffffff"/><path d="M58.714,119.042c0.292,0,0.588-0.017,0.885-0.052l78.078-9.167c13.813-1.609,27.808-0.558,41.109,3.065   c3.995,1.087,8.119-1.268,9.207-5.266c1.089-3.997-1.269-8.119-5.266-9.207c-15.144-4.125-31.062-5.323-46.794-3.49l-78.085,9.168   c-4.113,0.483-7.057,4.209-6.574,8.323C51.723,116.233,54.963,119.042,58.714,119.042z" fill="#ffffff"/><path d="M228.616,147.279c13.442-3.652,27.274-4.679,41.107-3.056l78.085,9.168c0.298,0.035,0.593,0.052,0.885,0.052   c3.751,0,6.991-2.809,7.439-6.626c0.482-4.114-2.461-7.84-6.574-8.323l-78.086-9.168c-15.748-1.848-31.49-0.678-46.788,3.479   c-3.998,1.086-6.357,5.207-5.271,9.204C220.499,146.005,224.623,148.365,228.616,147.279z" fill="#ffffff"/><path d="M58.714,153.442c0.292,0,0.588-0.017,0.885-0.052l78.078-9.167c13.804-1.608,27.807-0.558,41.109,3.065   c3.995,1.087,8.119-1.268,9.207-5.266c1.089-3.997-1.269-8.119-5.266-9.207c-15.146-4.125-31.069-5.323-46.794-3.49l-78.085,9.168   c-4.113,0.483-7.057,4.209-6.574,8.323C51.723,150.633,54.963,153.442,58.714,153.442z" fill="#ffffff"/><path d="M228.616,181.679c13.442-3.652,27.274-4.679,41.107-3.056l78.085,9.168c0.298,0.035,0.593,0.052,0.885,0.052   c3.751,0,6.991-2.809,7.439-6.626c0.482-4.114-2.461-7.84-6.574-8.323l-78.086-9.168c-15.748-1.848-31.49-0.677-46.788,3.479   c-3.998,1.086-6.357,5.207-5.271,9.204C220.499,180.406,224.623,182.765,228.616,181.679z" fill="#ffffff"/><path d="M58.714,187.843c0.292,0,0.588-0.017,0.885-0.052l78.078-9.167c13.803-1.608,27.807-0.558,41.109,3.065   c3.995,1.088,8.119-1.268,9.207-5.266c1.089-3.997-1.269-8.119-5.266-9.207c-15.145-4.125-31.068-5.323-46.794-3.491l-78.085,9.168   c-4.113,0.483-7.057,4.209-6.574,8.323C51.723,185.034,54.963,187.843,58.714,187.843z" fill="#ffffff"/><path d="M228.616,216.079c13.44-3.652,27.272-4.68,41.107-3.056l78.085,9.168c0.298,0.035,0.593,0.052,0.885,0.052   c3.751,0,6.991-2.809,7.439-6.626c0.482-4.114-2.461-7.84-6.574-8.323l-78.086-9.168c-15.748-1.847-31.489-0.678-46.788,3.479   c-3.998,1.086-6.357,5.207-5.271,9.204C220.499,214.806,224.623,217.166,228.616,216.079z" fill="#ffffff"/><path d="M58.714,222.243c0.292,0,0.588-0.017,0.885-0.052l78.078-9.167c13.8-1.609,27.805-0.559,41.109,3.065   c3.995,1.087,8.119-1.268,9.207-5.266c1.089-3.997-1.269-8.119-5.266-9.207c-15.145-4.125-31.072-5.323-46.794-3.49l-78.085,9.168   c-4.113,0.483-7.057,4.209-6.574,8.323C51.723,219.434,54.963,222.243,58.714,222.243z" fill="#ffffff"/><path d="M349.559,241.694l-78.086-9.168c-15.751-1.848-31.492-0.677-46.788,3.479c-3.998,1.086-6.357,5.207-5.271,9.204   c1.086,3.998,5.21,6.358,9.203,5.271c13.442-3.651,27.276-4.678,41.107-3.056l78.085,9.168c0.298,0.035,0.593,0.052,0.885,0.052   c3.751,0,6.991-2.809,7.439-6.626C356.615,245.904,353.672,242.177,349.559,241.694z" fill="#ffffff"/><path d="M58.714,256.644c0.292,0,0.588-0.017,0.885-0.052l78.078-9.167c13.804-1.608,27.807-0.558,41.109,3.065   c3.995,1.088,8.119-1.268,9.207-5.266c1.089-3.997-1.269-8.119-5.266-9.207c-15.146-4.125-31.069-5.323-46.794-3.49l-78.085,9.168   c-4.113,0.483-7.057,4.209-6.574,8.323C51.723,253.835,54.963,256.644,58.714,256.644z" fill="#ffffff"/></g><g transform="matrix(0.1376643031835556 0.10462486743927002 -0.10462486743927002 0.1376643031835556 62.352195739746094 93.27861022949219)" id="L1_4"><path d="M127.339,321.143H15.414l14.693-272.98h196.972l7.604,141.349c0.222,4.136,3.747,7.302,7.893,7.086   c4.136-0.223,7.309-3.756,7.086-7.892L241.676,40.26c-0.214-3.98-3.504-7.097-7.489-7.097H23c-3.985,0-7.275,3.117-7.489,7.097   l-15.5,287.98c-0.11,2.056,0.629,4.067,2.045,5.562c1.417,1.495,3.385,2.341,5.444,2.341h119.839c4.143,0,7.5-3.358,7.5-7.5   S131.482,321.143,127.339,321.143z" fill="#ffffff"/><path d="M71.482,61.035c-4.143,0-7.5,3.358-7.5,7.5v35.124c0,33.911,27.589,61.5,61.5,61.5s61.5-27.589,61.5-61.5V68.535   c0-4.142-3.357-7.5-7.5-7.5s-7.5,3.358-7.5,7.5v35.124c0,25.64-20.859,46.5-46.5,46.5s-46.5-20.86-46.5-46.5V68.535   C78.982,64.393,75.625,61.035,71.482,61.035z" fill="#ffffff"/><path d="M394.809,205.653h-20.816l-4.399-82.893c-0.211-3.982-3.502-7.103-7.489-7.103h-11.999v-7.645   c0-14.807-12.046-26.853-26.853-26.853s-26.854,12.046-26.854,26.853v7.645h-9.808c-3.987,0-7.278,3.121-7.489,7.103l-4.398,82.893   H151.82c-4.143,0-7.5,3.358-7.5,7.5v148.493c0,4.142,3.357,7.5,7.5,7.5h242.988c4.143,0,7.5-3.358,7.5-7.5V213.153   C402.309,209.011,398.951,205.653,394.809,205.653z M311.398,108.013c0-6.536,5.317-11.853,11.854-11.853   c6.535,0,11.853,5.317,11.853,11.853v7.645h-23.706V108.013z M293.703,130.658h61.288l3.98,74.995h-69.248L293.703,130.658z    M387.309,220.653v22.498H159.32v-22.498H387.309z M159.32,354.146v-95.994h227.988v95.994H159.32z" fill="#ffffff"/></g><g transform="matrix(0.19255100190639496 0.05997490510344505 -0.05997490510344505 0.19255100190639496 71.32725524902344 -7.583069801330566)" id="L1_5"><path d="M113.735,233.241c0-4.142-3.357-7.5-7.5-7.5h-8.374c-10.012-15.828-15.916-39.848-15.916-65.247   c0-27.164,6.748-52.739,18.052-68.413c6.683-9.265,6.406-21.982-0.67-30.926c-4.013-5.07-6.133-11.175-6.133-17.656   c0-7.994,3.223-15.4,9.075-20.854c5.847-5.449,13.496-8.14,21.509-7.57c13.984,0.987,25.305,12.273,26.333,26.253   c0.531,7.234-1.646,14.311-6.132,19.927c-3.956,4.954-5.874,11.209-5.401,17.613c0.305,4.131,3.889,7.241,8.032,6.927   c4.131-0.305,7.232-3.901,6.927-8.032c-0.193-2.621,0.575-5.159,2.163-7.148c6.853-8.58,10.181-19.372,9.37-30.388   c-1.57-21.362-18.867-38.608-40.235-40.117c-12.22-0.859-23.867,3.243-32.792,11.56C83.242,19.874,78.194,31.475,78.194,43.5   c0,9.894,3.24,19.217,9.369,26.963c2.936,3.71,3.046,8.992,0.268,12.844c-13.273,18.405-20.886,46.539-20.886,77.187   c0,30.607,7.598,58.719,20.844,77.127c1.409,1.958,3.675,3.119,6.088,3.119h12.358   C110.378,240.741,113.735,237.383,113.735,233.241z" fill="#ffffff"/><path d="M344.546,83.307c-2.778-3.853-2.669-9.134,0.268-12.844c6.129-7.745,9.368-17.069,9.368-26.963   c0-12.025-5.048-23.626-13.849-31.828c-8.925-8.316-20.563-12.423-32.792-11.56c-21.368,1.508-38.665,18.755-40.235,40.117   c-0.81,11.016,2.519,21.807,9.37,30.387c1.589,1.989,2.357,4.527,2.164,7.148c-0.306,4.131,2.796,7.727,6.927,8.032   c4.142,0.317,7.728-2.796,8.032-6.927c0.473-6.405-1.445-12.66-5.402-17.613c-4.485-5.617-6.663-12.694-6.132-19.927   c1.028-13.98,12.349-25.267,26.333-26.253c8.028-0.57,15.662,2.122,21.509,7.57c5.853,5.454,9.075,12.86,9.075,20.854   c0,6.481-2.12,12.586-6.131,17.655c-7.078,8.943-7.354,21.66-0.671,30.926c11.304,15.674,18.052,41.249,18.052,68.413   c0,25.397-5.904,49.418-15.917,65.247h-10.746c-4.143,0-7.5,3.358-7.5,7.5s3.357,7.5,7.5,7.5h14.73   c2.413,0,4.679-1.161,6.088-3.119c13.247-18.41,20.845-46.521,20.845-77.127C365.432,129.846,357.819,101.713,344.546,83.307z" fill="#ffffff"/><path d="M184.241,78.533c-0.569,4.103,2.296,7.89,6.398,8.459c0.35,0.049,0.696,0.072,1.04,0.072c3.685,0,6.898-2.718,7.419-6.471   c0.958-6.904-0.966-13.989-5.276-19.437c-4.012-5.069-6.132-11.174-6.132-17.656c0-7.995,3.223-15.401,9.075-20.854   c5.847-5.448,13.496-8.139,21.508-7.57c13.984,0.987,25.305,12.273,26.333,26.253c0.531,7.234-1.646,14.311-6.132,19.927   c-4.303,5.388-6.202,12.447-5.212,19.368c0.588,4.101,4.382,6.952,8.487,6.362c4.101-0.587,6.948-4.387,6.362-8.487   c-0.407-2.842,0.353-5.715,2.083-7.882c6.853-8.58,10.181-19.372,9.37-30.388c-1.57-21.362-18.867-38.608-40.235-40.117   c-12.221-0.859-23.866,3.243-32.791,11.559c-8.801,8.202-13.849,19.803-13.849,31.828c0,9.894,3.239,19.218,9.368,26.963   C183.844,72.72,184.64,75.66,184.241,78.533z" fill="#ffffff"/><path d="M125.442,131.285c0,9.895,3.24,19.219,9.369,26.963c2.936,3.71,3.046,8.991,0.268,12.844   c-8.594,11.915-14.905,28.106-18.254,46.823c-0.729,4.078,1.984,7.974,6.063,8.704c0.446,0.08,0.891,0.119,1.329,0.119   c3.563,0,6.725-2.55,7.374-6.181c2.912-16.281,8.472-30.732,15.654-40.691c6.682-9.266,6.406-21.982-0.671-30.926   c-4.012-5.069-6.132-11.174-6.132-17.655c0-7.994,3.223-15.4,9.075-20.854c5.847-5.449,13.491-8.137,21.509-7.57   c13.984,0.987,25.305,12.273,26.333,26.253c0.531,7.234-1.646,14.311-6.132,19.927c-7.061,8.84-7.303,21.517-0.59,30.827   c1.612,2.236,3.164,4.728,4.613,7.406c1.972,3.643,6.522,4.998,10.165,3.028c3.644-1.971,4.999-6.522,3.028-10.166   c-1.755-3.243-3.652-6.285-5.64-9.042c-2.792-3.872-2.733-9.091,0.144-12.693c6.852-8.58,10.18-19.371,9.37-30.387   c-1.57-21.362-18.867-38.608-40.235-40.117c-12.233-0.858-23.867,3.243-32.792,11.56   C130.49,107.659,125.442,119.26,125.442,131.285z" fill="#ffffff"/><path d="M219.958,127.888c-0.811,11.016,2.518,21.807,9.37,30.387c2.876,3.602,2.936,8.822,0.143,12.694   c-1.992,2.764-3.89,5.806-5.64,9.043c-1.97,3.644-0.613,8.195,3.031,10.165c3.643,1.969,8.195,0.612,10.164-3.031   c1.444-2.671,2.996-5.163,4.611-7.404c6.714-9.31,6.472-21.986-0.589-30.828c-4.486-5.616-6.663-12.693-6.132-19.926   c1.028-13.98,12.349-25.267,26.333-26.253c8.027-0.568,15.662,2.122,21.509,7.57c5.853,5.454,9.075,12.86,9.075,20.854   c0,6.48-2.12,12.586-6.132,17.655c-7.078,8.944-7.354,21.661-0.671,30.926c7.182,9.958,12.741,24.409,15.654,40.69   c0.649,3.63,3.811,6.18,7.374,6.18c0.438,0,0.883-0.039,1.33-0.119c4.077-0.73,6.791-4.626,6.062-8.704   c-3.35-18.717-9.661-34.908-18.254-46.822c-2.778-3.852-2.669-9.134,0.268-12.844c6.129-7.746,9.369-17.07,9.369-26.963   c0-12.025-5.048-23.626-13.849-31.828c-8.924-8.316-20.563-12.419-32.792-11.56C238.825,89.28,221.528,106.527,219.958,127.888z" fill="#ffffff"/><path d="M216.188,195.912c-65.193,0-118.232,53.039-118.232,118.232s53.039,118.232,118.232,118.232   s118.232-53.039,118.232-118.232S281.382,195.912,216.188,195.912z M216.188,417.377c-56.923,0-103.232-46.31-103.232-103.232   s46.31-103.232,103.232-103.232s103.232,46.31,103.232,103.232S273.111,417.377,216.188,417.377z" fill="#ffffff"/><path d="M251.901,239.167c-12.406,0-22.5,10.093-22.5,22.5c0,12.407,10.094,22.5,22.5,22.5c12.406,0,22.5-10.093,22.5-22.5   C274.401,249.261,264.308,239.167,251.901,239.167z M251.901,269.167c-4.136,0-7.5-3.364-7.5-7.5s3.364-7.5,7.5-7.5   c4.136,0,7.5,3.364,7.5,7.5S256.037,269.167,251.901,269.167z" fill="#ffffff"/><path d="M251.901,294.167c-12.406,0-22.5,10.093-22.5,22.5s10.094,22.5,22.5,22.5c12.406,0,22.5-10.093,22.5-22.5   S264.308,294.167,251.901,294.167z M251.901,324.167c-4.136,0-7.5-3.364-7.5-7.5s3.364-7.5,7.5-7.5c4.136,0,7.5,3.364,7.5,7.5   S256.037,324.167,251.901,324.167z" fill="#ffffff"/><path d="M200.901,266.667c-12.406,0-22.5,10.093-22.5,22.5s10.094,22.5,22.5,22.5s22.5-10.093,22.5-22.5   S213.308,266.667,200.901,266.667z M200.901,296.667c-4.136,0-7.5-3.364-7.5-7.5s3.364-7.5,7.5-7.5s7.5,3.364,7.5,7.5   S205.037,296.667,200.901,296.667z" fill="#ffffff"/></g><g transform="matrix(0.18557968735694885 -0.051549915224313736 0.051549915224313736 0.18557968735694885 128.39332580566406 -9.056577682495117)" id="L1_7"><path d="M191.307,296.882c0.371,3.881,3.636,6.787,7.457,6.787c0.238,0,0.48-0.011,0.722-0.035   c4.124-0.394,7.146-4.056,6.752-8.179l-22.157-231.87h132.075l-15.295,160.059c-0.394,4.124,2.629,7.785,6.752,8.179   c4.131,0.397,7.785-2.629,8.179-6.752l20.074-210.075c0.201-2.104-0.495-4.194-1.916-5.758c-1.421-1.563-3.437-2.455-5.55-2.455   H171.837c-2.113,0-4.128,0.892-5.55,2.455c-1.421,1.564-2.117,3.655-1.916,5.758L191.307,296.882z M320.152,21.783l-2.561,26.803   H182.649l-2.561-26.803H320.152z" fill="#ffffff"/><path d="M404.015,258.914c-9.932-14.636-23.426-22.696-37.999-22.696c-9.765,0-19.089,3.68-27.135,10.469v-15.146   c0-4.142-3.358-7.5-7.5-7.5s-7.5,3.358-7.5,7.5v15.146c-8.047-6.789-17.371-10.469-27.136-10.469   c-14.643,0-28.038,7.066-37.717,19.896c-9.427,12.496-14.619,29.854-14.619,48.875c0,3.295,0.311,6.892,0.923,10.688   c0.66,4.089,4.508,6.863,8.6,6.209c4.089-0.66,6.869-4.51,6.209-8.6c-0.486-3.008-0.732-5.799-0.732-8.297   c0-31.157,15.702-53.771,37.335-53.771c10.642,0,20.883,7.359,28.098,20.191c1.328,2.362,3.828,3.824,6.538,3.824   s5.209-1.462,6.538-3.824c7.214-12.832,17.456-20.191,28.097-20.191c20.307,0,37.462,26.908,37.462,58.759   c0,11.374-5.108,24.856-15.181,40.071c-3.119,4.71-6.82,9.021-11,12.815c-3.068,2.783-3.298,7.526-0.515,10.594   c1.48,1.632,3.514,2.46,5.557,2.46c1.797,0,3.601-0.643,5.037-1.946c5.104-4.631,9.622-9.894,13.428-15.644   c11.728-17.713,17.674-33.981,17.674-48.352C418.478,290.793,413.341,272.658,404.015,258.914z" fill="#ffffff"/><path d="M351.004,354.458l-174.153-42.139c-14.023-3.393-28.854-0.604-40.688,7.652c-8.388,5.853-14.703,14.073-18.268,23.466   l-35.979-30.412c-3.165-2.674-7.897-2.277-10.57,0.886c-2.674,3.164-2.277,7.896,0.886,10.57L98.5,346.684L8.2,338.227   c-4.125-0.387-7.78,2.644-8.167,6.768c-0.386,4.124,2.644,7.78,6.768,8.167l83.343,7.805l-51.797,20.879   c-3.841,1.548-5.701,5.918-4.152,9.76c1.178,2.923,3.989,4.698,6.958,4.698c0.933,0,1.883-0.175,2.801-0.546l71.005-28.621   c1.199,10.259,5.519,20.012,12.54,27.831c9.557,10.644,23.205,16.727,37.499,16.727c0.124,0,0.25,0,0.374-0.001l179.174-1.332   c14.295-0.106,26.312-10.895,27.953-25.097C374.14,371.065,364.899,357.82,351.004,354.458z M357.599,383.545   c-0.773,6.688-6.432,11.768-13.163,11.818l-179.174,1.332c-10.135,0.084-19.83-4.207-26.6-11.747   c-6.771-7.541-9.987-17.64-8.824-27.708c1.163-10.067,6.596-19.167,14.908-24.966c5.993-4.181,13.08-6.366,20.261-6.366   c2.777,0,5.569,0.327,8.317,0.992l174.153,42.139C354.02,370.62,358.371,376.858,357.599,383.545z" fill="#ffffff"/><path d="M225.963,95.278c-11.579,0-20.999,9.42-20.999,21s9.42,20.999,20.999,20.999s21-9.42,21-20.999   S237.542,95.278,225.963,95.278z M225.963,122.277c-3.308,0-5.999-2.691-5.999-5.999s2.691-6,5.999-6s6,2.691,6,6   S229.271,122.277,225.963,122.277z" fill="#ffffff"/><path d="M261.962,207.774c13.233,0,23.999-10.766,23.999-23.999c0-4.142-3.358-7.5-7.5-7.5s-7.5,3.358-7.5,7.5   c0,4.962-4.037,8.999-8.999,8.999c-4.962,0-9-4.037-9-8.999c0-4.962,4.037-9,9-9c4.142,0,7.5-3.358,7.5-7.5s-3.358-7.5-7.5-7.5   c-13.233,0-24,10.766-24,24C237.962,197.007,248.728,207.774,261.962,207.774z" fill="#ffffff"/></g><g transform="matrix(0.1554003804922104 0.02072005160152912 -0.02072005160152912 0.1554003804922104 210.3896484375 63.894222259521484)" id="L1_9"><path d="M347.707,0.487h-46.933c-31.819,0-58.125,23.979-61.84,54.812h-67.818c-3.715-30.833-30.021-54.812-61.84-54.812H62.306   C27.95,0.487,0,28.438,0,62.794v156.896c0,37.04,28.206,67.612,64.266,71.377v92.264c0,14.445,11.751,26.196,26.196,26.196h229.127   c14.445,0,26.197-11.751,26.197-26.196v-92.269c36.042-3.782,64.228-34.345,64.228-71.372V62.794   C410.014,28.438,382.063,0.487,347.707,0.487z M291.187,57.923c2.042-19.867,16.429-36.128,35.341-40.965   c20.716,5.293,35.571,24.285,35.571,45.838v156.892c0,14.994-6.025,29.282-16.313,39.785V129.401   C345.786,95.291,322.612,66.507,291.187,57.923z M297.628,15.604c-11.521,9.93-19.376,23.988-21.246,39.861   c-1.555-0.098-3.119-0.165-4.699-0.165h-17.616C257.508,33.778,275.515,17.064,297.628,15.604z M155.983,55.3h-17.616   c-1.592,0-3.168,0.068-4.736,0.167c-1.869-15.876-9.726-29.936-21.25-39.867C134.513,17.042,152.54,33.764,155.983,55.3z    M64.266,259.844c-10.512-10.536-16.686-24.982-16.686-40.155V62.796c0-21.611,14.935-40.643,35.736-45.878   c18.998,4.783,33.469,21.083,35.512,41.015c-31.407,8.597-54.563,37.371-54.563,71.468V259.844z M15,219.689V62.794   c0-23.067,16.6-42.32,38.478-46.468C40.58,27.885,32.58,44.651,32.58,62.796v156.892c0,21.406,9.711,41.671,25.922,55.19   C33.58,268.886,15,246.423,15,219.689z M330.786,383.33c0,6.174-5.023,11.196-11.197,11.196H90.462   c-6.174,0-11.196-5.022-11.196-11.196V129.401c0-32.589,26.513-59.102,59.102-59.102h133.316c32.589,0,59.103,26.513,59.103,59.102   V383.33z M395.014,219.689c0,26.901-18.814,49.476-43.972,55.298c16.291-13.519,26.057-33.834,26.057-55.299V62.796   c0-18.183-8.032-34.983-20.979-46.545c22.083,3.982,38.894,23.329,38.894,46.542V219.689z" fill="#ffffff"/><path d="M297.174,157.371H112.878c-4.142,0-7.5,3.358-7.5,7.5v68.048c0,4.142,3.358,7.5,7.5,7.5h1.473v71.447   c0,21.053,17.128,38.181,38.181,38.181h104.986c21.053,0,38.181-17.128,38.181-38.181v-71.447h1.476c4.143,0,7.5-3.358,7.5-7.5   v-68.048C304.674,160.729,301.316,157.371,297.174,157.371z M120.378,172.371h169.296v53.048H120.378V172.371z M188.898,280.113   h32.255v13.445c0,6.203-5.046,11.249-11.249,11.249h-9.757c-6.203,0-11.249-5.046-11.249-11.249V280.113z M221.153,265.113h-32.255   v-24.694h32.255V265.113z M280.698,311.866c0,12.782-10.398,23.181-23.181,23.181H152.532c-12.782,0-23.181-10.399-23.181-23.181   v-71.447h44.547v53.14c0,14.474,11.775,26.249,26.249,26.249h9.757c14.474,0,26.249-11.775,26.249-26.249v-53.14h44.545V311.866z" fill="#ffffff"/><path d="M115.241,100.543h179.57c4.143,0,7.5-3.358,7.5-7.5s-3.357-7.5-7.5-7.5h-179.57c-4.142,0-7.5,3.358-7.5,7.5   S111.099,100.543,115.241,100.543z" fill="#ffffff"/></g><g transform="matrix(0.21508337557315826 0.02234632521867752 -0.02234632521867752 0.21508337557315826 234.5839080810547 -45.39042663574219)" id="L1_10"><path d="M159.082,401.369v-85.16c59.953-3.878,107.546-53.879,107.546-114.795v-0.634c0-4.001-3.135-7.261-7.082-7.479   c1.205-4.696,1.833-9.542,1.833-14.508c0-30.649-23.768-55.833-53.836-58.128c-7.165-24.62-29.787-41.92-55.958-41.92   c-26.177,0-48.803,17.3-55.967,41.92c-30.068,2.298-53.835,27.481-53.835,58.128c0,4.967,0.628,9.812,1.833,14.508   c-3.946,0.219-7.08,3.478-7.08,7.479v0.634c0,60.916,47.593,110.917,107.546,114.795v85.16   c-23.461,2.466-44.268,16.404-55.45,37.611c-1.227,2.325-1.146,5.122,0.212,7.372s3.794,3.626,6.422,3.626h112.633   c2.628,0,5.064-1.376,6.422-3.626s1.438-5.047,0.212-7.372C203.35,417.773,182.544,403.835,159.082,401.369z M246.379,178.793   c0,5.017-0.837,9.87-2.482,14.487h-81.639c-0.779-2.199-1.401-4.456-1.815-6.767c-0.458-2.533-0.69-5.13-0.69-7.72   c0-23.601,18.47-42.619,42.058-43.298c0.42-0.013,0.84-0.019,1.26-0.019C226.951,135.476,246.379,154.908,246.379,178.793z    M151.585,93.745c18.235,0,34.152,11.301,40.445,27.789c-11.642,2.224-22.33,7.935-30.753,16.589   c-3.89,3.997-7.135,8.463-9.696,13.262c-2.562-4.8-5.806-9.267-9.697-13.265c-8.426-8.657-19.116-14.368-30.752-16.59   C117.428,105.045,133.347,93.745,151.585,93.745z M100.1,135.476c0.419,0,0.837,0.006,1.265,0.019   c23.576,0.672,42.045,19.691,42.045,43.298c0,2.595-0.232,5.192-0.693,7.735c-0.412,2.302-1.033,4.555-1.812,6.752H59.266   c-1.646-4.617-2.482-9.47-2.482-14.487C56.784,154.908,76.215,135.476,100.1,135.476z M51.77,208.28h199.625   c-3.538,51.977-46.953,93.179-99.813,93.179S55.308,260.257,51.77,208.28z M109.476,434.978   c10.521-11.95,25.747-19.004,42.106-19.004s31.586,7.054,42.106,19.004H109.476z" fill="#ffffff"/><path d="M408.825,23.076L354.828,0.577c-2.127-0.886-4.543-0.746-6.553,0.381c-2.01,1.127-3.391,3.115-3.743,5.392l-8.319,53.645   h-58.393l-9.641-37.708c-1.026-4.012-5.107-6.434-9.124-5.408c-4.014,1.026-6.435,5.111-5.409,9.124l8.691,33.992h-42.684   c-2.105,0-4.114,0.885-5.535,2.439c-1.421,1.554-2.123,3.634-1.935,5.731l3.939,43.92c0.37,4.126,4.025,7.174,8.14,6.8   c4.126-0.37,7.17-4.014,6.8-8.14l-0.78-8.699h140.726l-4.578,50.948h-94.185c-4.143,0-7.5,3.358-7.5,7.5s3.357,7.5,7.5,7.5h92.837   l-1.617,18h-83.22c-4.143,0-7.5,3.358-7.5,7.5s3.357,7.5,7.5,7.5h81.873l-3.563,39.651h-87.643c-4.143,0-7.5,3.358-7.5,7.5   s3.357,7.5,7.5,7.5h86.295l-2.906,32.339H246.26c-1.391-2.592-4.241-4.227-7.366-3.911c-4.121,0.418-7.122,4.098-6.704,8.219   l1.076,10.591c1.514,16.869,9.231,32.452,21.73,43.88c10.64,9.727,23.971,15.718,38.147,17.29v46.424   c-17.228,2.342-32.4,12.816-40.672,28.502c-1.227,2.325-1.146,5.122,0.212,7.372c1.357,2.25,3.794,3.626,6.422,3.626h82.807   c2.628,0,5.064-1.376,6.422-3.626c1.357-2.251,1.438-5.048,0.212-7.372c-8.229-15.604-23.286-26.049-40.402-28.464v-46.462   c14.175-1.572,27.506-7.562,38.145-17.288c12.5-11.427,20.218-27.009,21.733-43.876l21.09-234.723   c0.188-2.097-0.514-4.177-1.935-5.732c-1.421-1.554-3.43-2.439-5.535-2.439h-30.251l6.497-41.893l45.167,18.82   c3.825,1.593,8.215-0.215,9.808-4.038C414.456,29.06,412.648,24.669,408.825,23.076z M333.886,74.996l-1.869,12.051h-47.282   l-3.081-12.051H333.886z M227.855,74.996h38.316l3.081,12.051h-40.317L227.855,74.996z M274.315,434.978   c7.084-6.346,16.346-9.999,26.194-9.999s19.11,3.654,26.194,9.999H274.315z M300.644,349.486c-26.927,0-49.125-19.851-52.273-46.5   h104.548C349.814,329.594,327.599,349.486,300.644,349.486z M373.438,74.996l-1.083,12.051h-25.159l1.869-12.051H373.438z" fill="#ffffff"/></g><g transform="matrix(0.21353252232074738 0 0 0.21353252232074738 265.4253845214844 110.45020294189453)" id="L1_11"><path d="M435.125,250.57L370.702,34.155c-2.255-7.576-7.326-13.82-14.278-17.581c-6.954-3.763-14.956-4.59-22.533-2.334   L21.172,107.33c-7.579,2.256-13.826,7.327-17.589,14.278c-3.764,6.951-4.594,14.951-2.339,22.527L65.666,360.55   c2.255,7.576,7.326,13.82,14.278,17.581c4.387,2.373,9.19,3.579,14.043,3.579c2.838,0,5.693-0.413,8.49-1.245l109.639-32.637   c3.97-1.182,6.23-5.358,5.049-9.328c-1.182-3.969-5.357-6.231-9.328-5.049L98.198,366.088c-3.74,1.112-7.688,0.705-11.116-1.15   c-3.427-1.854-5.927-4.933-7.039-8.667L15.621,139.855c-1.112-3.735-0.703-7.679,1.152-11.106c1.856-3.428,4.938-5.93,8.678-7.042   l312.719-93.09c3.74-1.112,7.687-0.705,11.116,1.15c3.428,1.854,5.928,4.932,7.039,8.667l64.423,216.415   c2.295,7.711-2.114,15.853-9.83,18.149l-16.869,5.021c-3.97,1.182-6.23,5.358-5.049,9.328c1.183,3.97,5.356,6.231,9.328,5.049   l16.869-5.021C430.84,282.718,439.779,266.207,435.125,250.57z" fill="#ffffff"/><path d="M370.187,262.69c1.183,3.97,5.357,6.232,9.328,5.049l20.794-6.19c1.906-0.568,3.51-1.869,4.456-3.619   c0.947-1.75,1.16-3.803,0.593-5.709L344.879,49.052c-1.183-3.969-5.354-6.231-9.328-5.049L36.059,133.155   c-3.97,1.182-6.23,5.358-5.049,9.328l60.479,203.169c0.97,3.256,3.953,5.363,7.186,5.362c0.708,0,1.429-0.101,2.143-0.313   l87.404-26.018c3.97-1.182,6.23-5.358,5.049-9.328c-1.182-3.969-5.357-6.229-9.328-5.049l-80.216,23.878L47.527,145.392   l285.115-84.873l56.2,188.793l-13.605,4.05C371.266,254.544,369.006,258.721,370.187,262.69z" fill="#ffffff"/><path d="M293.568,175.724c-4.769-6.053-11.608-9.887-19.261-10.795c-7.655-0.907-15.2,1.217-21.253,5.986l-75.758,59.678   c-6.053,4.769-9.887,11.609-10.795,19.261c-0.909,7.652,1.217,15.2,5.986,21.253l111.286,141.271   c5.687,7.217,14.148,10.985,22.693,10.985c6.249,0,12.543-2.017,17.82-6.175l75.757-59.678c6.054-4.769,9.888-11.609,10.797-19.261   c0.908-7.652-1.218-15.2-5.986-21.253L293.568,175.724z M379.941,309.61l-97.515,76.818l-85.391-108.398l97.514-76.818   L379.941,309.61z M181.397,251.622c0.436-3.673,2.276-6.957,5.182-9.246l75.758-59.678c2.466-1.943,5.449-2.972,8.542-2.972   c0.551,0,1.105,0.033,1.66,0.099c3.674,0.436,6.957,2.276,9.246,5.182l3.483,4.422l-97.515,76.818l-3.483-4.421   C181.981,258.918,180.961,255.295,181.397,251.622z M395.945,336.48c-0.437,3.673-2.276,6.957-5.183,9.246l-75.758,59.678   c-5.997,4.724-14.722,3.69-19.448-2.309l-3.848-4.885l97.515-76.817l3.848,4.885C395.36,329.184,396.382,332.807,395.945,336.48z" fill="#ffffff"/></g><g transform="matrix(0.17830748856067657 0.024002932012081146 -0.024002932012081146 0.17830748856067657 5.657109260559082 176.03321838378906)" id="L1_12"><path d="M400.348,294.485c-8.014-20.093-24.798-33.091-46.049-35.662c-34.474-4.172-72.55,19.051-104.452,63.713   C178.301,422.701,110.164,429.493,90.976,429.168c-16.64-0.268-27.452-5.433-30.785-10.433   c-8.769-13.154,9.513-36.94,20.978-48.972c8.255,6.058,18.181,9.334,28.613,9.334c12.955,0,25.134-5.045,34.294-14.206   l106.461-106.46c2.786,0.3,5.602,0.467,8.444,0.467c20.7,0,40.162-8.062,54.801-22.7c14.638-14.638,22.699-34.1,22.699-54.801   c0-20.701-8.062-40.163-22.699-54.801c-30.219-30.217-79.385-30.215-109.602,0c-14.638,14.638-22.699,34.1-22.699,54.801   c0,2.842,0.167,5.658,0.467,8.444L75.488,296.304c-9.161,9.16-14.206,21.339-14.206,34.294c0,10.412,3.265,20.319,9.3,28.564   c-4.132,4.317-10.097,11.035-15.416,18.867c-16.741,24.653-13.295,40.269-7.456,49.027c6.927,10.392,23.011,16.788,43.023,17.11   c0.541,0.009,1.089,0.013,1.651,0.013c17.095,0,43.821-4.224,76.704-23.5c33.207-19.465,64.485-49.552,92.964-89.424   c28.193-39.471,62.012-60.985,90.444-57.541c15.637,1.891,27.999,11.487,33.918,26.327c10.44,26.179-0.117,62.094-28.242,96.072   c-8.815,10.649-16.981,21.185-24.273,31.314c-2.42,3.362-1.656,8.049,1.705,10.469s8.049,1.657,10.469-1.705   c7.096-9.856,15.054-20.123,23.654-30.513C401.406,367.408,412.853,325.841,400.348,294.485z M86.095,354.286   c-6.327-6.327-9.812-14.74-9.812-23.688c0-6.392,1.787-12.505,5.108-17.785l46.177,46.177c-5.28,3.322-11.394,5.108-17.785,5.108   C100.835,364.098,92.422,360.613,86.095,354.286z M214.788,225.593c-11.805-11.805-18.306-27.5-18.306-44.194   c0-3.396,0.283-6.747,0.811-10.036l71.725,71.725c-3.289,0.528-6.64,0.811-10.036,0.811   C242.288,243.899,226.593,237.397,214.788,225.593z M214.788,137.204c12.185-12.184,28.189-18.276,44.194-18.276   s32.01,6.092,44.193,18.276c11.806,11.805,18.307,27.5,18.307,44.194s-6.501,32.39-18.307,44.194   c-5.276,5.276-11.333,9.484-17.905,12.534l-83.017-83.017C205.304,148.537,209.512,142.48,214.788,137.204z M204.182,236.199   c8.337,8.337,18.243,14.533,29.047,18.329l-94.455,94.455l-47.376-47.376l94.455-94.456   C189.649,217.956,195.844,227.862,204.182,236.199z" fill="#ffffff"/><path d="M71.404,156.771c3.832,0,7.727-0.683,11.515-2.124c8.114-3.085,14.542-9.146,18.097-17.065s3.815-16.75,0.729-24.864   L74.201,40.279l60.756-23.103l17.82,46.862c-5.879-1.236-12.163-0.87-18.183,1.419c-16.75,6.37-25.195,25.179-18.826,41.93   c4.929,12.961,17.306,20.95,30.414,20.95c3.832,0,7.727-0.683,11.515-2.124c8.114-3.085,14.542-9.146,18.097-17.065   s3.815-16.75,0.729-24.864l-30.211-79.45c-0.707-1.859-2.124-3.362-3.938-4.176s-3.879-0.875-5.738-0.168L61.859,28.924   c-3.872,1.472-5.817,5.804-4.345,9.676L78,92.472c-5.879-1.236-12.163-0.869-18.183,1.419c-16.75,6.37-25.195,25.179-18.826,41.93   C45.919,148.782,58.296,156.771,71.404,156.771z M162.109,103.004c-1.915,4.264-5.375,7.528-9.745,9.189   c-9.021,3.428-19.147-1.118-22.578-10.137c-3.429-9.02,1.118-19.148,10.137-22.578c2.041-0.776,4.137-1.144,6.201-1.144   c7.058,0,13.723,4.302,16.377,11.281C164.163,93.985,164.024,98.739,162.109,103.004z M65.148,107.912   c2.041-0.776,4.137-1.144,6.201-1.144c7.058,0,13.723,4.302,16.377,11.281c1.661,4.37,1.522,9.124-0.393,13.389   c-1.915,4.264-5.375,7.528-9.745,9.189c-9.021,3.429-19.147-1.118-22.578-10.137C51.582,121.47,56.129,111.342,65.148,107.912z" fill="#ffffff"/></g><g transform="matrix(0.19266721606254578 -0.022230831906199455 0.022230831906199455 0.19266721606254578 88.79278564453125 176.3236541748047)" id="L1_13"><path d="M359.399,62.563H239.697c-0.929-5.959-2.956-11.555-5.852-16.592l99.926-31.312c3.953-1.238,6.153-5.447,4.915-9.399   c-1.239-3.953-5.446-6.156-9.399-4.914L223.562,33.475c-8.519-7.41-19.632-11.912-31.783-11.912   c-12.151,0-23.263,4.502-31.782,11.912L54.271,0.346c-3.954-1.239-8.161,0.962-9.399,4.914c-1.239,3.953,0.961,8.161,4.914,9.399   l99.926,31.312c-2.896,5.037-4.923,10.633-5.852,16.592H24.164c-12.445,0-22.57,10.125-22.57,22.569v253.861   c0,12.445,10.125,22.57,22.57,22.57h3.617v14.5c0,4.142,3.358,7.5,7.5,7.5s7.5-3.358,7.5-7.5v-14.5h298v14.5   c0,4.142,3.357,7.5,7.5,7.5s7.5-3.358,7.5-7.5v-14.5h3.617c12.444,0,22.569-10.125,22.569-22.57V85.132   C381.969,72.688,371.844,62.563,359.399,62.563z M191.779,36.563c15.893,0,29.227,11.128,32.644,26h-65.287   C162.552,47.692,175.885,36.563,191.779,36.563z M366.969,338.993c0,4.174-3.396,7.57-7.569,7.57H24.164   c-4.174,0-7.57-3.396-7.57-7.57V85.132c0-4.174,3.396-7.569,7.57-7.569h335.235c4.174,0,7.569,3.396,7.569,7.569V338.993z" fill="#ffffff"/><path d="M346.972,103.687c-0.577-3.369-3.358-5.922-6.764-6.208c-98.491-8.285-198.365-8.285-296.854,0   c-3.406,0.287-6.187,2.839-6.764,6.208c-11.912,69.591-11.912,140.162,0,209.752c0.577,3.369,3.358,5.921,6.764,6.208   c49.244,4.143,98.835,6.214,148.427,6.214c49.591,0,99.182-2.071,148.427-6.214c3.405-0.287,6.187-2.839,6.764-6.208   C358.884,243.848,358.884,173.278,346.972,103.687z M333.14,305.179c-93.832,7.576-188.886,7.576-282.716,0   c-10.354-64.139-10.354-129.093,0-193.232c93.831-7.576,188.884-7.576,282.716,0C343.493,176.086,343.493,241.04,333.14,305.179z" fill="#ffffff"/><path d="M321.094,168.689c-4.136,0.229-7.303,3.768-7.073,7.904c1.457,26.309,1.103,52.978-1.054,79.266   c-0.339,4.128,2.733,7.75,6.861,8.088c0.209,0.017,0.416,0.025,0.621,0.025c3.864,0,7.146-2.968,7.467-6.887   c2.213-26.97,2.577-54.331,1.081-81.323C328.768,171.627,325.247,168.466,321.094,168.689z" fill="#ffffff"/><path d="M319.672,159.642c0.241,0,0.485-0.012,0.73-0.035c4.123-0.399,7.143-4.064,6.743-8.188   c-0.743-7.689-1.651-15.482-2.698-23.165c-0.56-4.105-4.355-6.977-8.444-6.418c-4.104,0.56-6.979,4.34-6.419,8.444   c1.021,7.489,1.906,15.087,2.632,22.583C312.591,156.741,315.854,159.642,319.672,159.642z" fill="#ffffff"/><path d="M357.635,325.832c-5.754-3.788-13.351,1.804-11.339,8.411c0.913,2.997,3.672,5.151,6.801,5.309   c3.269,0.165,6.321-1.891,7.431-4.962C361.675,331.414,360.459,327.691,357.635,325.832z" fill="#ffffff"/></g><path d="M343.746,154.841c-12.696,0-24.804,2.558-35.842,7.18l-26.394-51.211h36.89c4.002,0,7.258,3.256,7.258,7.258  s-3.256,7.258-7.258,7.258h-7.871c-4.143,0-7.5,3.358-7.5,7.5s3.357,7.5,7.5,7.5h7.871c12.273,0,22.258-9.985,22.258-22.258  s-9.984-22.258-22.258-22.258h-49.192c-2.615,0-5.042,1.363-6.404,3.596c-1.361,2.233-1.461,5.015-0.263,7.34l13.125,25.467H167.423  l-10.92-21.403h17.269c4.143,0,7.5-3.358,7.5-7.5s-3.357-7.5-7.5-7.5h-49.193c-4.143,0-7.5,3.358-7.5,7.5s3.357,7.5,7.5,7.5h15.084  l14.576,28.568l-17.132,26.543c-13.113-7.065-28.101-11.08-44.011-11.08C41.763,154.841,0,196.603,0,247.936  c0,51.333,41.763,93.096,93.096,93.096c48.808,0,88.961-37.757,92.793-85.596h22.007l-8.549,27.818h-4.922  c-4.143,0-7.5,3.358-7.5,7.5s3.357,7.5,7.5,7.5h27c4.143,0,7.5-3.358,7.5-7.5s-3.357-7.5-7.5-7.5h-6.386l9.869-32.114l62.406-96.327  l7.269,14.103c-26.357,16.458-43.933,45.723-43.933,79.02c0,51.333,41.763,93.096,93.097,93.096  c51.333,0,93.096-41.763,93.096-93.096C436.842,196.603,395.079,154.841,343.746,154.841z M162.121,154.826l43.678,85.61h-19.911  c-2.162-26.985-15.882-50.758-36.193-66.359L162.121,154.826z M170.824,240.436h-63.96l34.661-53.699  C157.734,199.592,168.745,218.724,170.824,240.436z M93.096,326.032C50.033,326.032,15,290.999,15,247.936  c0-43.062,35.033-78.096,78.096-78.096c12.914,0,25.095,3.17,35.837,8.743l-42.139,65.285c-1.489,2.307-1.598,5.244-0.284,7.655  c1.313,2.411,3.84,3.912,6.586,3.912h77.728C167.036,294.992,133.628,326.032,93.096,326.032z M218.819,232.949l-43.743-85.737  h99.289L218.819,232.949z M343.746,326.032c-43.063,0-78.097-35.034-78.097-78.096c0-27.498,14.298-51.704,35.838-65.623  l35.592,69.059c1.332,2.583,3.954,4.065,6.673,4.065c1.157,0,2.331-0.269,3.43-0.835c3.683-1.897,5.129-6.42,3.231-10.103  l-35.603-69.079c8.956-3.586,18.714-5.581,28.936-5.581c43.063,0,78.096,35.034,78.096,78.096  C421.842,290.999,386.809,326.032,343.746,326.032z" transform="matrix(0.15990975499153137 0.15990975499153137 -0.15990975499153137 0.15990975499153137 210.00949096679688 109.21202087402344)" id="L1_14" fill="#ffffff"/><g transform="matrix(0.1647968590259552 -0.04316108301281929 0.04316108301281929 0.1647968590259552 157.99703979492188 253.18446350097656)" id="L1_16"><path d="M367.607,14.935H7.5c-4.142,0-7.5,3.358-7.5,7.5v245.892c0,4.142,3.358,7.5,7.5,7.5h41.678v76.844   c0,4.142,3.358,7.5,7.5,7.5h261.754c4.143,0,7.5-3.358,7.5-7.5v-76.844h41.675c4.143,0,7.5-3.358,7.5-7.5V22.435   C375.107,18.293,371.75,14.935,367.607,14.935z M360.107,29.935v174.048H15V29.935H360.107z M310.932,345.172H64.178v-99.22h15.142   v76.579c0,4.142,3.358,7.5,7.5,7.5h201.471c4.143,0,7.5-3.358,7.5-7.5v-76.579h15.142V345.172z M94.319,245.951h186.471v69.079   H94.319V245.951z M325.932,260.827v-14.876h15.503c4.143,0,7.5-3.358,7.5-7.5s-3.357-7.5-7.5-7.5H33.675   c-4.142,0-7.5,3.358-7.5,7.5s3.358,7.5,7.5,7.5h15.502v14.876H15v-41.844h345.107v41.844H325.932z" fill="#ffffff"/><path d="M187.555,188.818c39.125,0,70.956-31.831,70.956-70.956s-31.83-70.956-70.956-70.956   c-39.125,0-70.956,31.831-70.956,70.956S148.43,188.818,187.555,188.818z M187.555,61.906c30.854,0,55.956,25.102,55.956,55.956   s-25.102,55.956-55.956,55.956s-55.956-25.102-55.956-55.956S156.701,61.906,187.555,61.906z" fill="#ffffff"/><path d="M187.555,160.681c23.611,0,42.82-19.208,42.82-42.819s-19.209-42.819-42.82-42.819s-42.819,19.208-42.819,42.819   S163.944,160.681,187.555,160.681z M187.555,90.043c15.34,0,27.82,12.479,27.82,27.819s-12.479,27.819-27.82,27.819   c-15.34,0-27.819-12.479-27.819-27.819S172.215,90.043,187.555,90.043z" fill="#ffffff"/><path d="M269.254,100.004h72.974c4.143,0,7.5-3.358,7.5-7.5v-39.66c0-4.142-3.357-7.5-7.5-7.5h-72.974c-4.143,0-7.5,3.358-7.5,7.5   v39.66C261.754,96.646,265.112,100.004,269.254,100.004z M276.754,60.344h57.974v24.66h-57.974V60.344z" fill="#ffffff"/><path d="M69.06,186.18c14.887,0,26.999-12.112,26.999-26.999s-12.112-26.999-26.999-26.999s-26.999,12.112-26.999,26.999   S54.172,186.18,69.06,186.18z M69.06,147.182c6.616,0,11.999,5.383,11.999,11.999S75.676,171.18,69.06,171.18   s-11.999-5.383-11.999-11.999S62.443,147.182,69.06,147.182z" fill="#ffffff"/><path d="M306.048,132.182c-14.888,0-26.999,12.112-26.999,26.999s12.111,26.999,26.999,26.999s26.999-12.112,26.999-26.999   S320.936,132.182,306.048,132.182z M306.048,171.18c-6.616,0-11.999-5.383-11.999-11.999s5.383-11.999,11.999-11.999   s11.999,5.383,11.999,11.999S312.665,171.18,306.048,171.18z" fill="#ffffff"/></g><g transform="matrix(0.16297096014022827 0.024859976023435593 -0.024859976023435593 0.16297096014022827 -4.356379985809326 266.915283203125)" id="L1_17"><path d="M479.198,174.528l-17.014-23.243l17.014-23.244c3.237-4.422,3.546-10.117,0.807-14.863    c-2.739-4.746-7.827-7.324-13.275-6.734l-28.637,3.114l-11.621-26.357c-2.211-5.015-6.988-8.13-12.468-8.13    c-5.482,0-10.259,3.115-12.469,8.129l-11.621,26.357l-28.637-3.114c-5.455-0.59-10.535,1.988-13.276,6.734    c-1.431,2.479-2.022,5.216-1.806,7.896c-24.405-14.517-52.564-23.356-82.658-24.618V55.588h88.584    c18.19,0,32.989-14.799,32.989-32.988V12.538C385.109,5.625,379.484,0,372.57,0h-21.907c-4.146,0-7.505,3.36-7.505,7.505    s3.359,7.505,7.505,7.505h19.434v7.591c0,9.914-8.065,17.978-17.979,17.978H159.939c-9.914,0-17.979-8.065-17.979-17.978V15.01    h161.135c4.146,0,7.505-3.36,7.505-7.505S307.241,0,303.095,0H139.49c-6.915,0-12.539,5.625-12.539,12.538v10.063    c0,18.19,14.799,32.988,32.989,32.988h88.585v40.867c-94.092,3.948-169.426,81.716-169.426,176.76    c0,30.431,7.856,60.444,22.719,86.797c2.036,3.61,6.612,4.886,10.224,2.85c3.609-2.036,4.886-6.613,2.85-10.224    c-7.437-13.187-12.942-27.381-16.416-42.091c10.155,11.916,24.068,22.645,41.208,31.563c9.691,5.042,20.232,9.387,31.388,13.017    c11.681,31.523,29.98,58.317,52.985,76.864c-30.766-6.135-59.096-21.107-81.887-43.648c-2.945-2.914-7.697-2.889-10.613,0.059    c-2.915,2.947-2.889,7.698,0.058,10.613c33.186,32.824,77.123,50.96,123.781,51.123c0.049,0.001,0.098,0.008,0.147,0.008    c0.031,0,0.061-0.004,0.092-0.005c0.132,0,0.263,0.005,0.395,0.005c97.559,0,176.93-79.37,176.93-176.93    c0-17.965-2.706-35.305-7.712-51.649c0.463-0.686,0.878-1.417,1.224-2.201l11.621-26.357l28.637,3.114    c5.457,0.594,10.535-1.988,13.275-6.733C482.744,184.645,482.436,178.949,479.198,174.528z M146.611,328.796    c-24.945-12.979-41.984-29.808-48.952-48.074h59.179c0.601,19.626,3.51,38.622,8.438,56.442    C158.754,334.648,152.507,331.863,146.611,328.796z M99.85,265.711c7.998-16.317,24.123-31.267,46.761-43.045    c5.475-2.848,11.25-5.457,17.268-7.828c-4.092,16.205-6.516,33.295-7.049,50.873H99.85z M169.189,196.969    c-10.456,3.501-20.364,7.626-29.507,12.382c-17.98,9.354-32.409,20.703-42.672,33.324    c12.38-64.587,63.249-115.658,127.731-128.334C200.127,134.082,180.844,163.031,169.189,196.969z M181.028,208.954    c20.796-6.195,43.769-9.786,67.496-10.41v67.168h-76.672C172.488,245.869,175.663,226.726,181.028,208.954z M189.219,360.243    c18.741,4.535,38.781,7.17,59.306,7.684v62.738C223.232,416.127,202.678,391.175,189.219,360.243z M248.525,352.919    c-23.104-0.607-45.502-4.021-65.864-9.919c-6.337-19.279-10.091-40.335-10.8-62.279h76.664V352.919z M248.525,183.535    c-21.301,0.534-42.094,3.335-61.439,8.192c13.365-33.108,34.763-60.024,61.439-75.623V183.535z M263.535,116.104    c26.673,15.6,48.07,42.516,61.436,75.622c-19.345-4.856-40.136-7.657-61.436-8.191V116.104z M263.535,198.544    c23.726,0.623,46.698,4.214,67.493,10.409c5.367,17.773,8.542,36.917,9.178,56.759h-76.671V198.544z M263.535,280.721h76.661    c-0.722,21.951-4.545,43.03-10.997,62.339c-20.308,5.862-42.635,9.253-65.664,9.859V280.721z M263.535,367.927    c20.411-0.511,40.342-3.121,58.993-7.61c-13.457,30.443-33.886,55.12-58.993,69.795V367.927z M286.973,432.158    c23.338-18.583,41.906-45.414,53.769-76.947c11.242-3.642,21.86-8.015,31.619-13.092c17.156-8.924,31.083-19.664,41.242-31.593    C399.049,372.005,349.348,420.037,286.973,432.158z M365.435,328.803c-5.935,3.087-12.227,5.888-18.797,8.415    c5.01-17.845,7.968-36.862,8.58-56.496h59.182C407.43,298.991,390.386,315.823,365.435,328.803z M348.178,214.838    c6.014,2.371,11.786,4.976,17.257,7.822c22.644,11.779,38.774,26.732,46.774,43.052h-56.981    C354.694,248.133,352.27,231.042,348.178,214.838z M372.36,209.344c-9.138-4.753-19.042-8.876-29.493-12.375    c-11.654-33.936-30.936-62.886-55.548-82.626c29.319,5.763,55.802,19.484,77.151,38.786l-15.665,21.398    c-3.236,4.422-3.545,10.117-0.806,14.863c2.739,4.746,7.83,7.329,13.275,6.734l28.637-3.114l11.621,26.356    c1.834,4.162,5.439,7.008,9.742,7.858c1.502,5.051,2.767,10.205,3.772,15.449C404.78,230.05,390.345,218.698,372.36,209.344z     M438.71,177.978c-5.943-0.65-11.535,2.588-13.943,8.049l-10.764,24.413l-10.765-24.414c-2.204-4.997-7.085-8.13-12.444-8.13    c-0.495,0-0.996,0.027-1.498,0.082l-26.527,2.884l15.762-21.529c3.524-4.815,3.524-11.284,0-16.099l-15.76-21.529l26.525,2.884    c5.929,0.645,11.535-2.589,13.943-8.049l10.765-24.413l10.764,24.414c2.408,5.459,8.004,8.691,13.942,8.048l26.526-2.884    l-15.761,21.529c-3.524,4.815-3.524,11.284,0,16.099l15.761,21.529L438.71,177.978z" fill="#ffffff"/><path d="M256.03,467.508c-4.146,0-7.505,3.36-7.505,7.505v29.482c0,4.145,3.359,7.505,7.505,7.505c4.145,0,7.505-3.36,7.505-7.505    v-29.482C263.535,470.869,260.175,467.508,256.03,467.508z" fill="#ffffff"/><path d="M118.642,125.215l-20.847-20.847c-2.931-2.931-7.682-2.931-10.614,0c-2.931,2.931-2.931,7.682,0,10.613l20.847,20.847    c1.466,1.466,3.387,2.198,5.308,2.198s3.842-0.733,5.307-2.198C121.573,132.898,121.573,128.146,118.642,125.215z" fill="#ffffff"/><path d="M424.876,431.448l-20.847-20.847c-2.931-2.931-7.682-2.931-10.614,0c-2.931,2.931-2.931,7.682,0,10.613l20.847,20.847    c1.466,1.466,3.387,2.198,5.307,2.198c1.919,0,3.841-0.734,5.307-2.198C427.807,439.131,427.807,434.379,424.876,431.448z" fill="#ffffff"/><path d="M54.23,265.709H24.748c-4.146,0-7.505,3.36-7.505,7.505c0,4.145,3.359,7.505,7.505,7.505H54.23    c4.145,0,7.505-3.36,7.505-7.505C61.735,269.07,58.375,265.709,54.23,265.709z" fill="#ffffff"/><path d="M487.31,265.709h-29.482c-4.146,0-7.505,3.36-7.505,7.505c0,4.145,3.359,7.505,7.505,7.505h29.482    c4.145,0,7.505-3.36,7.505-7.505C494.815,269.07,491.456,265.709,487.31,265.709z" fill="#ffffff"/><path d="M118.642,410.601c-2.93-2.931-7.681-2.931-10.614,0l-20.847,20.847c-2.931,2.93-2.931,7.682,0,10.613    c1.466,1.466,3.386,2.198,5.308,2.198c1.92,0,3.842-0.734,5.307-2.198l20.847-20.847    C121.573,418.284,121.572,413.532,118.642,410.601z" fill="#ffffff"/><path d="M505.806,350.104l-17.4-9.516l-9.515-17.399c0-0.001,0-0.001,0-0.001c-2.084-3.81-6.077-6.176-10.42-6.176    c-4.342,0-8.335,2.367-10.419,6.177l-9.515,17.399l-17.4,9.516c-3.811,2.083-6.178,6.076-6.178,10.419s2.368,8.335,6.178,10.419    l17.4,9.516l9.515,17.4c2.084,3.81,6.077,6.176,10.419,6.176c4.343,0,8.336-2.367,10.42-6.177l9.515-17.399l17.4-9.516    c3.811-2.083,6.178-6.076,6.178-10.419S509.617,352.188,505.806,350.104z M480.397,367.731c-1.994,1.092-3.625,2.722-4.719,4.72    l-7.206,13.177l-7.209-13.181c-1.092-1.994-2.723-3.624-4.719-4.717l-13.177-7.207l13.176-7.206    c1.995-1.091,3.627-2.722,4.722-4.721l7.207-13.177l7.208,13.181c1.093,1.995,2.725,3.626,4.719,4.716l13.177,7.207    L480.397,367.731z" fill="#ffffff"/><path d="M498.556,37.118l-13.246-7.245l-7.244-13.246c-1.919-3.509-5.596-5.689-9.595-5.689s-7.676,2.179-9.595,5.689    l-7.244,13.246l-13.248,7.245c-3.508,1.919-5.688,5.596-5.688,9.595c0,4,2.179,7.676,5.689,9.595l13.247,7.245l7.244,13.247    c1.919,3.509,5.596,5.689,9.595,5.689s7.676-2.18,9.595-5.691l7.244-13.246l13.246-7.244c3.509-1.919,5.69-5.596,5.69-9.595    C504.246,42.714,502.066,39.036,498.556,37.118z M477.059,50.959c-1.838,1.007-3.341,2.51-4.345,4.346l-4.243,7.758l-4.247-7.766    c-1.006-1.834-2.507-3.334-4.344-4.34l-7.759-4.243l7.758-4.243c1.835-1.004,3.338-2.505,4.349-4.348l4.243-7.758l4.242,7.757    c1.006,1.839,2.51,3.343,4.349,4.348l7.758,4.244L477.059,50.959z" fill="#ffffff"/><path d="M65.875,335.79l-13.246-7.245L45.386,315.3c-1.919-3.509-5.596-5.689-9.595-5.689c-4,0-7.676,2.18-9.595,5.689    l-7.246,13.247L5.703,335.79c-3.508,1.919-5.688,5.596-5.688,9.595s2.179,7.676,5.689,9.595l13.246,7.245l7.245,13.246    c1.919,3.509,5.596,5.689,9.595,5.689c4,0,7.676-2.179,9.595-5.689l7.244-13.246l13.247-7.245    c3.508-1.919,5.688-5.596,5.688-9.595C71.564,341.386,69.385,337.71,65.875,335.79z M44.382,349.629    c-1.84,1.006-3.344,2.51-4.349,4.348l-4.243,7.758l-4.243-7.757c-1.006-1.839-2.51-3.343-4.348-4.348l-7.759-4.244l7.762-4.244    c1.837-1.007,3.34-2.51,4.344-4.346l4.244-7.759l4.242,7.757c1.005,1.837,2.508,3.341,4.349,4.349l7.758,4.243L44.382,349.629z" fill="#ffffff"/></g><g transform="matrix(0.13258640468120575 -0.022097734734416008 0.022097734734416008 0.13258640468120575 84.39695739746094 267.7110595703125)" id="L1_18"><rect x="42px" y="85px" width="21px" height="21px" fill="#ffffff"/><rect x="96px" y="53px" width="21px" height="21px" fill="#ffffff"/><rect x="256px" y="96px" width="21px" height="21px" fill="#ffffff"/><path d="M510.933,219.262L489.6,176.596c-1.816-3.634-5.538-5.921-9.6-5.899h-60.693l24.896-91.136     c1.047-3.906,4.224-6.877,8.192-7.659l40.405-8.085l-4.267-20.907l-40.363,8.075c-11.904,2.339-21.443,11.241-24.597,22.955     l-26.389,96.757h-55.869c0.003-0.1,0.018-0.199,0.019-0.299V160.03c0.001-1.191-0.197-2.373-0.587-3.499     c-2.818-7.267-7.388-13.49-13.11-18.277c8.693-8.887,13.787-20.993,13.696-33.904c-0.098-2.757-0.47-5.498-1.111-8.182     c-5.334-22.347-27.774-36.139-50.122-30.805c-5.5-7.28-12.821-12.983-21.227-16.533c0.107-1.124,0.16-2.244,0.16-3.36     c-0.455-22.544-19.054-40.476-41.6-40.107c-15.635-0.068-30.001,8.594-37.237,22.453c-3.84-1.707-7.872-3.296-11.371-4.469     C175.54,9.71,163.362,0.082,149.333,0.03c-13.218,0.434-25.677,6.277-34.464,16.16C109.229,12.605,102.684,10.7,96,10.697     c-0.015,0-0.03,0-0.045,0C71.637,10.532,51.791,30.113,51.627,54.43C23.637,54.09,0.601,76.365,0,104.35     c0.106,12.832,5.155,24.884,13.734,33.88c-5.741,4.795-10.326,11.035-13.147,18.323C0.2,157.671,0.001,158.847,0,160.03v10.368     c0.002,0.456,0.03,0.912,0.085,1.365l40.043,311.829c1.818,16.224,15.557,28.479,31.883,28.437h194.656h2.656h168.011     c5.415-0.002,9.969-4.061,10.592-9.44l30.911-267.893h22.497c1.675,0.009,3.328-0.376,4.827-1.125     C511.43,230.939,513.567,224.532,510.933,219.262z M21.333,104.35c0.602-16.333,14.289-29.109,30.624-28.587     c3.346,0.047,6.664,0.616,9.835,1.685c2.561,0.812,5.333,0.627,7.764-0.516c5.331-2.508,7.619-8.862,5.11-14.193     c-1.118-2.331-1.705-4.881-1.717-7.467c-0.001-0.079-0.001-0.157-0.001-0.236C72.961,42.319,83.281,32.018,96,32.03     c5.402,0.418,10.377,3.099,13.696,7.381c1.07,1.098,2.363,1.953,3.793,2.506c5.494,2.125,11.671-0.606,13.796-6.1     c4.287-8.368,12.665-13.859,22.048-14.453c5.088,0,6.496,1.141,11.371,14.272c1.266,3.458,4.225,6.018,7.829,6.773     c7.358,2.244,14.447,5.288,21.141,9.077c1.743,1.522,3.935,2.436,6.243,2.603c5.876,0.426,10.984-3.991,11.41-9.867     c1.301-9.497,9.06-16.795,18.62-17.513c11.197-0.841,20.955,7.554,21.796,18.751c-0.024,2.257-0.484,4.488-1.355,6.571     c-0.267,0.654-0.468,1.332-0.601,2.026c-1.107,5.786,2.687,11.374,8.473,12.481c9.416,1.722,17.464,7.793,21.707,16.373     c0.014,0.029,0.028,0.058,0.042,0.086c2.604,5.284,8.999,7.457,14.283,4.852c2.503-1.326,5.256-2.113,8.082-2.31     c11.166-0.777,20.848,7.645,21.625,18.811c-0.034,9.866-5.284,18.979-13.803,23.957l0.019,0.062     c-2.467-0.417-4.99-0.64-7.55-0.638c-12.277,0.017-23.947,5.346-32,14.613c-1.318-1.521-2.744-2.946-4.265-4.265     c-17.673-15.318-44.417-13.408-59.735,4.265c-1.318-1.521-2.744-2.946-4.265-4.265c-17.673-15.318-44.417-13.408-59.735,4.265     c-1.318-1.521-2.744-2.946-4.265-4.265c-17.673-15.318-44.417-13.408-59.735,4.265c-8.053-9.267-19.723-14.596-32-14.613     c-2.513-0.001-4.989,0.214-7.412,0.616C26.801,123.335,21.49,114.268,21.333,104.35z M170.667,256.03     c35.332,0.035,63.965,28.668,64,64c0,35.346-28.654,64-64,64c-35.346,0-64-28.654-64-64S135.32,256.03,170.667,256.03z      M192,237.386c-6.819-1.755-13.967-2.689-21.333-2.689c-7.366,0-14.515,0.934-21.333,2.689V166.04     c0.527-0.772,0.965-1.618,1.28-2.533c2.105-6.305,7.053-11.254,13.359-13.359c11.075-3.697,23.051,2.283,26.748,13.359     c0.315,0.914,0.753,1.76,1.28,2.533V237.386z M128,246.142c-15.229,8.813-27.474,22.188-34.873,38.267l-7.432-118.935     c0.365-0.616,0.679-1.27,0.919-1.966c2.105-6.305,7.053-11.254,13.359-13.359c11.075-3.697,23.051,2.283,26.748,13.359     c0.315,0.914,0.753,1.76,1.28,2.533V246.142z M98.165,365.024c7.684,12.355,18.431,22.6,31.188,29.673H128v96.053h-21.978     L98.165,365.024z M149.333,402.675c6.819,1.755,13.967,2.689,21.333,2.689c7.367-0.008,14.515-0.949,21.333-2.711v88.097h-42.667     V402.675z M211.911,394.697c12.791-7.088,23.565-17.36,31.263-29.749l-7.877,125.802h-21.964v-96.053H211.911z M248.215,284.429     c-7.398-16.088-19.647-29.471-34.882-38.287V166.04c0.527-0.772,0.965-1.618,1.28-2.533c2.105-6.305,7.053-11.254,13.359-13.359     c11.075-3.697,23.051,2.283,26.748,13.359c0.245,0.71,0.566,1.377,0.941,2.003L248.215,284.429z M71.979,490.75     c-5.502-0.015-10.105-4.18-10.667-9.653L21.333,169.716v-7.669c4.177-7.926,12.374-12.914,21.333-12.981     c9.076,0.058,17.122,5.853,20.053,14.443c0.39,1.131,0.961,2.161,1.669,3.07L84.647,490.75H71.979z M256.672,490.75     l20.299-324.206c0.695-0.901,1.257-1.92,1.642-3.037c2.931-8.59,10.977-14.385,20.053-14.443     c8.959,0.067,17.156,5.055,21.333,12.981v7.669l-40.021,311.531c-0.555,5.064-4.596,8.97-9.568,9.451h-3.745v0.053H256.672z      M436.023,419.612c-15.775,3.725-32.497,1.367-46.716-6.847c-30.607-17.68-41.085-56.824-23.405-87.431     c17.011-29.449,53.89-40.25,83.919-25.278L436.023,419.612z M452.38,277.892c-9.863-3.854-20.39-5.862-31.054-5.861     c-47.128,0.002-85.332,38.209-85.33,85.337c0.002,47.128,38.209,85.332,85.337,85.33c4.066-0.001,8.118-0.303,12.127-0.88     l-5.642,48.88H299.57c0.779-2.208,1.331-4.53,1.614-6.944l31.982-249.056h124.199L452.38,277.892z M469.333,213.364H335.906     l2.74-21.333h134.763l10.667,21.333H469.333z" fill="#ffffff"/><rect x="394px" y="458px" width="21px" height="21px" fill="#ffffff"/><rect x="330px" y="458px" width="42px" height="21px" fill="#ffffff"/></g><g transform="matrix(0.1439121514558792 0.04704820364713669 -0.04704820364713669 0.1439121514558792 262.2037658691406 205.16213989257812)" id="L1_19"><path d="M500.94,191.81H31.606c-5.888,0-10.667,4.779-10.667,10.667v256c0,29.397,23.915,53.333,53.333,53.333h384    c29.419,0,53.333-23.936,53.333-53.333v-256C511.606,196.588,506.828,191.81,500.94,191.81z M490.273,458.476    c0,17.643-14.357,32-32,32h-384c-17.643,0-32-14.357-32-32V213.143h448V458.476z" fill="#ffffff"/><path d="M511.265,93.1L493.11,24.215C488.929,7.468,471.82-3.049,454.86,0.791L25.078,102.764    c-8.448,1.92-15.595,7.061-20.139,14.443c-4.544,7.381-5.888,16.085-3.755,24.533l20.096,79.445    c1.195,4.821,5.547,8.043,10.325,8.043c0.853,0,1.728-0.085,2.645-0.32c5.696-1.429,9.152-7.232,7.701-12.949l-1.173-4.629    l462.528-105.088c2.816-0.661,5.269-2.411,6.763-4.885C511.585,98.882,511.99,95.895,511.265,93.1z M35.553,190.636l-13.696-54.08    c-0.704-2.816-0.235-5.717,1.259-8.192c1.515-2.453,3.904-4.16,6.805-4.843L459.702,21.57c0.768-0.192,1.557-0.277,2.325-0.277    c4.779,0,9.195,3.285,10.411,8.213l15.381,58.347L35.553,190.636z" fill="#ffffff"/><path d="M121.718,192.919c-5.291-2.581-11.648-0.491-14.336,4.779l-42.667,85.333c-2.624,5.269-0.491,11.669,4.779,14.315    c1.557,0.768,3.179,1.131,4.779,1.131c3.904,0,7.68-2.155,9.557-5.909l42.667-85.333    C129.121,201.964,126.987,195.564,121.718,192.919z" fill="#ffffff"/><path d="M228.364,192.919c-5.269-2.581-11.669-0.491-14.315,4.779l-42.667,85.333c-2.624,5.269-0.491,11.669,4.779,14.315    c1.557,0.768,3.179,1.131,4.779,1.131c3.904,0,7.68-2.155,9.536-5.909l42.667-85.333    C235.766,201.964,233.633,195.564,228.364,192.919z" fill="#ffffff"/><path d="M335.03,192.919c-5.248-2.581-11.648-0.491-14.315,4.779l-42.667,85.333c-2.624,5.269-0.491,11.669,4.779,14.315    c1.557,0.768,3.179,1.131,4.779,1.131c3.904,0,7.68-2.155,9.536-5.909l42.667-85.333    C342.433,201.964,340.299,195.564,335.03,192.919z" fill="#ffffff"/><path d="M441.697,192.919c-5.291-2.581-11.648-0.491-14.315,4.779l-42.667,85.333c-2.624,5.269-0.491,11.669,4.779,14.315    c1.557,0.768,3.179,1.131,4.779,1.131c3.904,0,7.68-2.155,9.536-5.909l42.667-85.333    C449.099,201.964,446.966,195.564,441.697,192.919z" fill="#ffffff"/><path d="M500.94,277.143H31.606c-5.888,0-10.667,4.779-10.667,10.667s4.779,10.667,10.667,10.667H500.94    c5.909,0,10.667-4.779,10.667-10.667S506.828,277.143,500.94,277.143z" fill="#ffffff"/><path d="M134.753,173.186L61.281,99.714c-4.16-4.16-10.923-4.16-15.083,0c-4.16,4.16-4.16,10.923,0,15.083l73.472,73.493    c2.091,2.069,4.821,3.115,7.552,3.115c2.731,0,5.461-1.045,7.531-3.136C138.913,184.108,138.913,177.346,134.753,173.186z" fill="#ffffff"/><path d="M239.115,149.484L165.58,76.012c-4.16-4.16-10.923-4.16-15.083,0c-4.16,4.16-4.16,10.923,0,15.083l73.515,73.472    c2.091,2.069,4.821,3.115,7.552,3.115c2.731,0,5.461-1.045,7.552-3.115C243.276,160.407,243.276,153.644,239.115,149.484z" fill="#ffffff"/><path d="M343.393,125.783L269.985,52.29c-4.16-4.16-10.923-4.16-15.083,0c-4.16,4.16-4.16,10.923,0,15.083l73.408,73.493    c2.091,2.069,4.821,3.115,7.552,3.115s5.461-1.024,7.531-3.115C347.553,136.706,347.553,129.943,343.393,125.783z" fill="#ffffff"/><path d="M447.628,102.103L374.198,28.61c-4.16-4.16-10.923-4.16-15.083,0c-4.16,4.16-4.16,10.923,0,15.083l73.429,73.493    c2.091,2.069,4.821,3.115,7.552,3.115s5.461-1.045,7.531-3.115C451.788,113.026,451.788,106.263,447.628,102.103z" fill="#ffffff"/></g><g transform="matrix(0.15396679937839508 -0.05132226273417473 0.05132226273417473 0.15396679937839508 -41.911685943603516 25.54415512084961)" id="L1_20"><path d="M472,272V168c0-13.232-10.768-24-24-24h-16c-6.168,0-11.744,2.408-16,6.24c-4.256-3.84-9.832-6.24-16-6.24h-16     c-6.168,0-11.744,2.408-16,6.24c-4.256-3.84-9.832-6.24-16-6.24h-16c-13.232,0-24,10.768-24,24v102.656     c-18.456-12.792-45.392-23.68-84.832-28.288l12.6-88.208c0.152-1.064,0.232-2.144,0.232-3.224     C240,138.288,229.712,128,217.064,128H144V56c0-4.408,3.592-8,8-8h64c13.232,0,24-10.768,24-24S229.232,0,216,0h-72     c-26.472,0-48,21.528-48,48v80H22.936C10.288,128,0,138.288,0,150.936c0,1.08,0.08,2.16,0.232,3.248l19.28,134.944     C0.496,311.776,0,334.112,0,336c0,13.952,9.024,25.712,21.496,30.088C18.032,371.2,16,377.368,16,384     c0,8.528,3.4,16.232,8.856,21.976C10.056,414.16,0,429.92,0,448c0,26.472,21.528,48,48,48h240h16h192V328v-8v-24     C496,282.768,485.232,272,472,272z M424,168c0-4.408,3.592-8,8-8h16c4.408,0,8,3.592,8,8v104h-32V168z M376,168     c0-4.408,3.592-8,8-8h16c4.408,0,8,3.592,8,8v104h-32V168z M328,168c0-4.408,3.592-8,8-8h16c4.408,0,8,3.592,8,8v104h-32V168z      M200,16h16c4.408,0,8,3.592,8,8s-3.592,8-8,8h-16V16z M168,16h16v16h-16V16z M112,48c0-17.648,14.352-32,32-32h8v16     c-13.232,0-24,10.768-24,24v72h-16V48z M17.224,160l-1.152-8.056c-0.048-0.336-0.072-0.672-0.072-1.008     c0-3.824,3.112-6.936,6.936-6.936H96h48h73.064c3.824,0,6.936,3.112,6.936,6.936c0,0.336-0.024,0.672-0.064,0.984l-1.16,8.08H200     v16h20.488l-4.568,32H24.08l-4.568-32H184v-16H17.224z M213.64,224l-2.416,16.928C202.656,240.336,193.632,240,184,240h-16     c-69.712,0-110.432,16.232-134.296,35.352L26.368,224H213.64z M16,336c0-0.8,1.736-80,152-80h16c149.224,0,151.96,76.784,152,80     c0,8.824-7.176,16-16,16h-8h-8H48H32C23.176,352,16,344.824,16,336z M48,400c-8.824,0-16-7.176-16-16c0-8.824,7.176-16,16-16h256     c8.824,0,16,7.176,16,16c0,8.824-7.176,16-16,16H48z M270.608,416l-32.824,38.296L150.24,416H270.608z M304,480h-16H48     c-17.648,0-32-14.352-32-32s14.352-32,32-32h62.328l131.888,57.704L291.68,416H304c17.648,0,32,14.352,32,32S321.648,480,304,480     z M327.152,405.976C332.6,400.232,336,392.528,336,384c0-5.856-1.696-11.272-4.448-16H448v80h-96c0-5.616-1.024-10.984-2.8-16     H400v-16h-60.32C336.096,412.008,331.88,408.592,327.152,405.976z M480,320h-16v16h16v144H339.68     c4.152-4.624,7.408-10.032,9.52-16H464V352H347.552c2.752-4.728,4.448-10.144,4.448-16h96v-16h-98.712     c-2.6-8.896-7.736-20.44-17.752-32H472c4.408,0,8,3.584,8,8V320z" fill="#ffffff"/><rect x="416px" y="416px" width="16px" height="16px" fill="#ffffff"/><rect x="104px" y="272px" width="16px" height="16px" fill="#ffffff"/><rect x="136px" y="288px" width="16px" height="16px" fill="#ffffff"/><rect x="168px" y="272px" width="16px" height="16px" fill="#ffffff"/><rect x="216px" y="296px" width="16px" height="16px" fill="#ffffff"/><rect x="256px" y="272px" width="16px" height="16px" fill="#ffffff"/><rect x="56px" y="304px" width="16px" height="16px" fill="#ffffff"/></g></defs><g fi:class="KUsePattern" opacity="0.26"><pattern id="pattern_L1_1" width="350" height="350" patternUnits="userSpaceOnUse"><use xlink:href="#L1_1" x="-350" y="-350"/><use xlink:href="#L1_1" x="0" y="-350"/><use xlink:href="#L1_1" x="350" y="-350"/><use xlink:href="#L1_1" x="-350" y="0"/><use xlink:href="#L1_1" x="0" y="0"/><use xlink:href="#L1_1" x="350" y="0"/><use xlink:href="#L1_1" x="-350" y="350"/><use xlink:href="#L1_1" x="0" y="350"/><use xlink:href="#L1_1" x="350" y="350"/></pattern><rect x="0" y="0" width="100%" height="100%" fill="url(#pattern_L1_1)"/></g><g fi:class="KUsePattern" opacity="0.25"><pattern id="pattern_L1_4" width="350" height="350" patternUnits="userSpaceOnUse"><use xlink:href="#L1_4" x="-350" y="-350"/><use xlink:href="#L1_4" x="0" y="-350"/><use xlink:href="#L1_4" x="350" y="-350"/><use xlink:href="#L1_4" x="-350" y="0"/><use xlink:href="#L1_4" x="0" y="0"/><use xlink:href="#L1_4" x="350" y="0"/><use xlink:href="#L1_4" x="-350" y="350"/><use xlink:href="#L1_4" x="0" y="350"/><use xlink:href="#L1_4" x="350" y="350"/></pattern><rect x="0" y="0" width="100%" height="100%" fill="url(#pattern_L1_4)"/></g><g fi:class="KUsePattern" opacity="0.25"><pattern id="pattern_L1_5" width="350" height="350" patternUnits="userSpaceOnUse"><use xlink:href="#L1_5" x="-350" y="-350"/><use xlink:href="#L1_5" x="0" y="-350"/><use xlink:href="#L1_5" x="350" y="-350"/><use xlink:href="#L1_5" x="-350" y="0"/><use xlink:href="#L1_5" x="0" y="0"/><use xlink:href="#L1_5" x="350" y="0"/><use xlink:href="#L1_5" x="-350" y="350"/><use xlink:href="#L1_5" x="0" y="350"/><use xlink:href="#L1_5" x="350" y="350"/></pattern><rect x="0" y="0" width="100%" height="100%" fill="url(#pattern_L1_5)"/></g><g fi:class="KUsePattern" opacity="0.25"><pattern id="pattern_L1_7" width="350" height="350" patternUnits="userSpaceOnUse"><use xlink:href="#L1_7" x="-350" y="-350"/><use xlink:href="#L1_7" x="0" y="-350"/><use xlink:href="#L1_7" x="350" y="-350"/><use xlink:href="#L1_7" x="-350" y="0"/><use xlink:href="#L1_7" x="0" y="0"/><use xlink:href="#L1_7" x="350" y="0"/><use xlink:href="#L1_7" x="-350" y="350"/><use xlink:href="#L1_7" x="0" y="350"/><use xlink:href="#L1_7" x="350" y="350"/></pattern><rect x="0" y="0" width="100%" height="100%" fill="url(#pattern_L1_7)"/></g><g fi:class="KUsePattern" opacity="0.24"><pattern id="pattern_L1_10" width="350" height="350" patternUnits="userSpaceOnUse"><use xlink:href="#L1_10" x="-350" y="-350"/><use xlink:href="#L1_10" x="0" y="-350"/><use xlink:href="#L1_10" x="350" y="-350"/><use xlink:href="#L1_10" x="-350" y="0"/><use xlink:href="#L1_10" x="0" y="0"/><use xlink:href="#L1_10" x="350" y="0"/><use xlink:href="#L1_10" x="-350" y="350"/><use xlink:href="#L1_10" x="0" y="350"/><use xlink:href="#L1_10" x="350" y="350"/></pattern><rect x="0" y="0" width="100%" height="100%" fill="url(#pattern_L1_10)"/></g><g fi:class="KUsePattern" opacity="0.25"><pattern id="pattern_L1_9" width="350" height="350" patternUnits="userSpaceOnUse"><use xlink:href="#L1_9" x="-350" y="-350"/><use xlink:href="#L1_9" x="0" y="-350"/><use xlink:href="#L1_9" x="350" y="-350"/><use xlink:href="#L1_9" x="-350" y="0"/><use xlink:href="#L1_9" x="0" y="0"/><use xlink:href="#L1_9" x="350" y="0"/><use xlink:href="#L1_9" x="-350" y="350"/><use xlink:href="#L1_9" x="0" y="350"/><use xlink:href="#L1_9" x="350" y="350"/></pattern><rect x="0" y="0" width="100%" height="100%" fill="url(#pattern_L1_9)"/></g><g fi:class="KUsePattern" opacity="0.25"><pattern id="pattern_L1_11" width="350" height="350" patternUnits="userSpaceOnUse"><use xlink:href="#L1_11" x="-350" y="-350"/><use xlink:href="#L1_11" x="0" y="-350"/><use xlink:href="#L1_11" x="350" y="-350"/><use xlink:href="#L1_11" x="-350" y="0"/><use xlink:href="#L1_11" x="0" y="0"/><use xlink:href="#L1_11" x="350" y="0"/><use xlink:href="#L1_11" x="-350" y="350"/><use xlink:href="#L1_11" x="0" y="350"/><use xlink:href="#L1_11" x="350" y="350"/></pattern><rect x="0" y="0" width="100%" height="100%" fill="url(#pattern_L1_11)"/></g><g fi:class="KUsePattern" opacity="0.25"><pattern id="pattern_L1_12" width="350" height="350" patternUnits="userSpaceOnUse"><use xlink:href="#L1_12" x="-350" y="-350"/><use xlink:href="#L1_12" x="0" y="-350"/><use xlink:href="#L1_12" x="350" y="-350"/><use xlink:href="#L1_12" x="-350" y="0"/><use xlink:href="#L1_12" x="0" y="0"/><use xlink:href="#L1_12" x="350" y="0"/><use xlink:href="#L1_12" x="-350" y="350"/><use xlink:href="#L1_12" x="0" y="350"/><use xlink:href="#L1_12" x="350" y="350"/></pattern><rect x="0" y="0" width="100%" height="100%" fill="url(#pattern_L1_12)"/></g><g fi:class="KUsePattern" opacity="0.25"><pattern id="pattern_L1_13" width="350" height="350" patternUnits="userSpaceOnUse"><use xlink:href="#L1_13" x="-350" y="-350"/><use xlink:href="#L1_13" x="0" y="-350"/><use xlink:href="#L1_13" x="350" y="-350"/><use xlink:href="#L1_13" x="-350" y="0"/><use xlink:href="#L1_13" x="0" y="0"/><use xlink:href="#L1_13" x="350" y="0"/><use xlink:href="#L1_13" x="-350" y="350"/><use xlink:href="#L1_13" x="0" y="350"/><use xlink:href="#L1_13" x="350" y="350"/></pattern><rect x="0" y="0" width="100%" height="100%" fill="url(#pattern_L1_13)"/></g><g fi:class="KUsePattern" opacity="0.25"><pattern id="pattern_L1_14" width="350" height="350" patternUnits="userSpaceOnUse"><use xlink:href="#L1_14" x="-350" y="-350"/><use xlink:href="#L1_14" x="0" y="-350"/><use xlink:href="#L1_14" x="350" y="-350"/><use xlink:href="#L1_14" x="-350" y="0"/><use xlink:href="#L1_14" x="0" y="0"/><use xlink:href="#L1_14" x="350" y="0"/><use xlink:href="#L1_14" x="-350" y="350"/><use xlink:href="#L1_14" x="0" y="350"/><use xlink:href="#L1_14" x="350" y="350"/></pattern><rect x="0" y="0" width="100%" height="100%" fill="url(#pattern_L1_14)"/></g><g fi:class="KUsePattern" opacity="0.25"><pattern id="pattern_L1_16" width="350" height="350" patternUnits="userSpaceOnUse"><use xlink:href="#L1_16" x="-350" y="-350"/><use xlink:href="#L1_16" x="0" y="-350"/><use xlink:href="#L1_16" x="350" y="-350"/><use xlink:href="#L1_16" x="-350" y="0"/><use xlink:href="#L1_16" x="0" y="0"/><use xlink:href="#L1_16" x="350" y="0"/><use xlink:href="#L1_16" x="-350" y="350"/><use xlink:href="#L1_16" x="0" y="350"/><use xlink:href="#L1_16" x="350" y="350"/></pattern><rect x="0" y="0" width="100%" height="100%" fill="url(#pattern_L1_16)"/></g><g fi:class="KUsePattern" opacity="0.25"><pattern id="pattern_L1_17" width="350" height="350" patternUnits="userSpaceOnUse"><use xlink:href="#L1_17" x="-350" y="-350"/><use xlink:href="#L1_17" x="0" y="-350"/><use xlink:href="#L1_17" x="350" y="-350"/><use xlink:href="#L1_17" x="-350" y="0"/><use xlink:href="#L1_17" x="0" y="0"/><use xlink:href="#L1_17" x="350" y="0"/><use xlink:href="#L1_17" x="-350" y="350"/><use xlink:href="#L1_17" x="0" y="350"/><use xlink:href="#L1_17" x="350" y="350"/></pattern><rect x="0" y="0" width="100%" height="100%" fill="url(#pattern_L1_17)"/></g><g fi:class="KUsePattern" opacity="0.25"><pattern id="pattern_L1_18" width="350" height="350" patternUnits="userSpaceOnUse"><use xlink:href="#L1_18" x="-350" y="-350"/><use xlink:href="#L1_18" x="0" y="-350"/><use xlink:href="#L1_18" x="350" y="-350"/><use xlink:href="#L1_18" x="-350" y="0"/><use xlink:href="#L1_18" x="0" y="0"/><use xlink:href="#L1_18" x="350" y="0"/><use xlink:href="#L1_18" x="-350" y="350"/><use xlink:href="#L1_18" x="0" y="350"/><use xlink:href="#L1_18" x="350" y="350"/></pattern><rect x="0" y="0" width="100%" height="100%" fill="url(#pattern_L1_18)"/></g><g fi:class="KUsePattern" opacity="0.25"><pattern id="pattern_L1_19" width="350" height="350" patternUnits="userSpaceOnUse"><use xlink:href="#L1_19" x="-350" y="-350"/><use xlink:href="#L1_19" x="0" y="-350"/><use xlink:href="#L1_19" x="350" y="-350"/><use xlink:href="#L1_19" x="-350" y="0"/><use xlink:href="#L1_19" x="0" y="0"/><use xlink:href="#L1_19" x="350" y="0"/><use xlink:href="#L1_19" x="-350" y="350"/><use xlink:href="#L1_19" x="0" y="350"/><use xlink:href="#L1_19" x="350" y="350"/></pattern><rect x="0" y="0" width="100%" height="100%" fill="url(#pattern_L1_19)"/></g><g fi:class="KUsePattern" opacity="0.25"><pattern id="pattern_L1_20" width="350" height="350" patternUnits="userSpaceOnUse"><use xlink:href="#L1_20" x="-350" y="-350"/><use xlink:href="#L1_20" x="0" y="-350"/><use xlink:href="#L1_20" x="350" y="-350"/><use xlink:href="#L1_20" x="-350" y="0"/><use xlink:href="#L1_20" x="0" y="0"/><use xlink:href="#L1_20" x="350" y="0"/><use xlink:href="#L1_20" x="-350" y="350"/><use xlink:href="#L1_20" x="0" y="350"/><use xlink:href="#L1_20" x="350" y="350"/></pattern><rect x="0" y="0" width="100%" height="100%" fill="url(#pattern_L1_20)"/></g></svg>