<svg
   xmlns:dc="http://purl.org/dc/elements/1.1/"
   xmlns:cc="http://creativecommons.org/ns#"
   xmlns:rdf="http://www.w3.org/1999/02/22-rdf-syntax-ns#"
   xmlns:svg="http://www.w3.org/2000/svg"
   xmlns="http://www.w3.org/2000/svg"
   xmlns:xlink="http://www.w3.org/1999/xlink"
   id="svg8"
   version="1.1"
   viewBox="0 0 50.329624 10.90114"
   height="10.90114mm"
   width="50.329624mm">
  <defs
     id="defs2">
    <linearGradient
       id="linearGradient3073">
      <stop
         id="stop3069"
         offset="0"
         style="stop-color:#e0edff;stop-opacity:1" />
      <stop
         id="stop3071"
         offset="1"
         style="stop-color:#63a1ff;stop-opacity:1" />
    </linearGradient>
    <linearGradient
       id="linearGradient3025">
      <stop
         id="stop3021"
         offset="0"
         style="stop-color:#7c7c7c;stop-opacity:1" />
      <stop
         id="stop3023"
         offset="1"
         style="stop-color:#b4b4b4;stop-opacity:1" />
    </linearGradient>
    <linearGradient
       y2="168.35519"
       x2="93.064987"
       y1="168.28905"
       x1="74.454643"
       gradientUnits="userSpaceOnUse"
       id="linearGradient3029"
       xlink:href="#linearGradient3025" />
    <linearGradient
       gradientUnits="userSpaceOnUse"
       y2="175.56509"
       x2="110.23217"
       y1="161.87289"
       x1="110.13796"
       id="linearGradient3075"
       xlink:href="#linearGradient3073" />
    <linearGradient
       y2="168.35519"
       x2="93.064987"
       y1="168.28905"
       x1="74.454643"
       gradientUnits="userSpaceOnUse"
       id="linearGradient3096"
       xlink:href="#linearGradient3025" />
    <linearGradient
       y2="168.35519"
       x2="93.064987"
       y1="168.28905"
       x1="74.454643"
       gradientUnits="userSpaceOnUse"
       id="linearGradient3098"
       xlink:href="#linearGradient3025" />
    <linearGradient
       y2="168.35519"
       x2="93.064987"
       y1="168.28905"
       x1="74.454643"
       gradientUnits="userSpaceOnUse"
       id="linearGradient3100"
       xlink:href="#linearGradient3025" />
    <linearGradient
       y2="175.56509"
       x2="110.23217"
       y1="161.87289"
       x1="110.13796"
       gradientUnits="userSpaceOnUse"
       id="linearGradient3102"
       xlink:href="#linearGradient3073" />
    <linearGradient
       y2="175.56509"
       x2="110.23217"
       y1="161.87289"
       x1="110.13796"
       gradientUnits="userSpaceOnUse"
       id="linearGradient3104"
       xlink:href="#linearGradient3073" />
    <linearGradient
       y2="175.56509"
       x2="110.23217"
       y1="161.87289"
       x1="110.13796"
       gradientUnits="userSpaceOnUse"
       id="linearGradient3106"
       xlink:href="#linearGradient3073" />
    <linearGradient
       y2="175.56509"
       x2="110.23217"
       y1="161.87289"
       x1="110.13796"
       gradientUnits="userSpaceOnUse"
       id="linearGradient3108"
       xlink:href="#linearGradient3073" />
    <linearGradient
       y2="175.56509"
       x2="110.23217"
       y1="161.87289"
       x1="110.13796"
       gradientUnits="userSpaceOnUse"
       id="linearGradient3110"
       xlink:href="#linearGradient3073" />
  </defs>
  <metadata
     id="metadata5">
    <rdf:RDF>
      <cc:Work
         rdf:about="">
        <dc:format>image/svg+xml</dc:format>
        <dc:type
           rdf:resource="http://purl.org/dc/dcmitype/StillImage" />
        <dc:title></dc:title>
      </cc:Work>
    </rdf:RDF>
  </metadata>
  <g
     transform="translate(-74.220776,-162.97959)"
     id="layer1">
    <g
       id="text817"
       style="font-style:normal;font-variant:normal;font-weight:normal;font-stretch:normal;font-size:14.11111069px;line-height:1.25;font-family:'Poetsen One';-inkscape-font-specification:'Poetsen One';letter-spacing:0px;word-spacing:0px;fill:url(#linearGradient3075);fill-opacity:1;stroke:url(#linearGradient3029);stroke-width:0.60000002;stroke-miterlimit:4;stroke-dasharray:none"
       aria-label="Studeals">
      <path
         id="path3079"
         style="fill:#ffffff;fill-opacity:1;stroke:url(#linearGradient3096);stroke-width:0.60000002;stroke-linecap:round;stroke-linejoin:round;stroke-miterlimit:4;stroke-dasharray:none"
         d="m 78.683558,163.27959 q 1.326444,0 1.961444,0.57856 0.649111,0.57855 0.649111,1.50989 0,0.79022 -0.437444,1.21355 -0.437444,0.40922 -1.255889,0.40922 -0.254,0 -0.324555,-0.0423 -0.07056,-0.0564 -0.07056,-0.21167 0,-0.14111 -0.02822,-0.36689 -0.01411,-0.22577 -0.09878,-0.43744 -0.08467,-0.21167 -0.268111,-0.35278 -0.183444,-0.15522 -0.508,-0.15522 -0.451556,0 -0.804333,0.28222 -0.352778,0.26811 -0.352778,0.70556 0,0.381 0.282222,0.62089 0.296333,0.23989 0.733778,0.45155 0.437444,0.19756 0.945444,0.40922 0.522111,0.21167 0.959556,0.56445 0.437444,0.33867 0.719666,0.86078 0.296334,0.508 0.296334,1.29822 0,0.62089 -0.211667,1.17122 -0.197555,0.53622 -0.606778,0.94544 -0.395111,0.39512 -1.016,0.62089 -0.606777,0.22578 -1.425222,0.22578 -0.705555,0 -1.312333,-0.15522 -0.592667,-0.15522 -1.044222,-0.381 -0.437445,-0.23989 -0.691445,-0.508 -0.254,-0.28222 -0.254,-0.508 0,-0.93133 0.09878,-1.34056 0.112889,-0.40922 0.395111,-0.40922 0.197556,0 0.409222,0.16933 0.225778,0.16934 0.508,0.381 0.282223,0.21167 0.649111,0.381 0.381,0.16934 0.874889,0.16934 0.197556,0 0.381,-0.0282 0.197556,-0.0423 0.338667,-0.127 0.155222,-0.0847 0.239889,-0.22578 0.09878,-0.14111 0.09878,-0.33867 0,-0.35278 -0.268111,-0.56444 -0.268112,-0.21167 -0.677334,-0.381 -0.409222,-0.18345 -0.889,-0.36689 -0.465666,-0.19756 -0.874889,-0.52211 -0.409222,-0.33867 -0.677333,-0.86078 -0.268111,-0.52211 -0.268111,-1.34056 0,-0.91722 0.338667,-1.55222 0.352777,-0.635 0.889,-1.03011 0.550333,-0.40922 1.227666,-0.57855 0.691445,-0.18345 1.368778,-0.18345 z" />
      <path
         id="path3081"
         style="fill:#ffffff;fill-opacity:1;stroke:url(#linearGradient3098);stroke-width:0.60000002;stroke-linecap:round;stroke-linejoin:round;stroke-miterlimit:4;stroke-dasharray:none"
         d="m 84.512549,167.58348 q -0.04233,0.53622 -0.09878,1.05833 -0.04233,0.52211 -0.08467,0.98778 -0.04233,0.46567 -0.07055,0.83256 -0.01411,0.36688 -0.01411,0.56444 0,0.36689 0.08467,0.49389 0.08467,0.11289 0.282223,0.11289 0.155222,0 0.268111,-0.0565 0.112889,-0.0564 0.211666,-0.127 0.09878,-0.0705 0.169334,-0.127 0.08467,-0.0564 0.183444,-0.0564 0.09878,0 0.183445,0.11289 0.08467,0.11289 0.08467,0.52211 0,0.77611 -0.423333,1.22767 -0.423333,0.45155 -1.453444,0.45155 -1.016,0 -1.509889,-0.46567 -0.479778,-0.47977 -0.479778,-1.45344 0,-0.21167 0.01411,-0.49389 0.02822,-0.29633 0.07056,-0.762 0.04233,-0.46566 0.09878,-1.143 0.07056,-0.67733 0.141111,-1.67922 h -0.747888 q -0.112889,0 -0.141111,-0.0423 -0.01411,-0.0564 -0.01411,-0.15523 l 0.04233,-0.71966 q 0.01411,-0.18345 0.04233,-0.35278 0.04233,-0.18344 0.141111,-0.32456 0.112889,-0.14111 0.310445,-0.22577 0.197555,-0.0847 0.522111,-0.0847 0.09878,-0.254 0.225777,-0.60678 0.127,-0.35278 0.254,-0.67733 0.127,-0.33867 0.239889,-0.56445 0.127,-0.22577 0.225778,-0.22577 h 0.409222 q 0.592667,0 0.818445,0.36689 0.225778,0.36688 0.225778,0.87488 0,0.28223 -0.04233,0.83256 h 1.481667 q 0.225778,0 0.225778,0.19756 l -0.05644,0.762 q -0.02822,0.42333 -0.239889,0.69144 -0.197555,0.254 -0.832555,0.254 z" />
      <path
         id="path3083"
         style="fill:#ffffff;fill-opacity:1;stroke:url(#linearGradient3100);stroke-width:0.60000002;stroke-linecap:round;stroke-linejoin:round;stroke-miterlimit:4;stroke-dasharray:none"
         d="m 88.978716,166.87792 q 0,0.29634 -0.05645,0.83256 -0.04233,0.53622 -0.09878,1.11478 -0.04233,0.57855 -0.09878,1.08655 -0.04233,0.508 -0.04233,0.73378 0,0.49389 0.239889,0.77611 0.254,0.26811 0.691445,0.26811 0.381,0 0.635,-0.29633 0.268111,-0.31045 0.423333,-0.79022 0.169333,-0.49389 0.268111,-1.11478 0.09878,-0.62089 0.141111,-1.25589 0.05644,-0.635 0.08467,-1.22767 0.04233,-0.60677 0.08467,-1.04422 0.01411,-0.11289 0.08467,-0.19755 0.07056,-0.0847 0.225778,-0.0847 h 0.508 q 0.437444,0 0.705555,0.0988 0.282223,0.0847 0.437445,0.254 0.169333,0.16933 0.225778,0.42333 0.07055,0.23989 0.07055,0.56445 0,0.21166 -0.02822,0.60677 -0.01411,0.381 -0.07056,1.07245 -0.05644,0.67733 -0.141111,1.73566 -0.07056,1.04423 -0.183444,2.59645 -0.02822,0.29633 -0.07056,0.35278 -0.02822,0.0564 -0.225778,0.0564 h -0.550333 q -0.423333,0 -0.705555,-0.0988 -0.268111,-0.0988 -0.437445,-0.254 -0.169333,-0.15522 -0.239889,-0.36689 -0.07055,-0.21166 -0.08467,-0.43744 -0.211667,0.36689 -0.479778,0.62089 -0.254,0.254 -0.536222,0.40922 -0.282223,0.14111 -0.578556,0.19756 -0.296333,0.0705 -0.578555,0.0705 -0.536223,0 -0.959556,-0.16933 -0.423333,-0.18345 -0.719667,-0.47978 -0.282222,-0.29633 -0.437444,-0.70556 -0.155222,-0.40922 -0.155222,-0.87488 0,-0.18345 0.01411,-0.59267 0.02822,-0.42333 0.05644,-0.94544 0.04233,-0.52212 0.08467,-1.10067 0.04233,-0.59267 0.07056,-1.11478 0.04233,-0.52211 0.07055,-0.91722 0.04233,-0.39511 0.05645,-0.56445 0.02822,-0.254 0.112888,-0.33866 0.08467,-0.0988 0.282223,-0.0988 h 0.451555 q 0.437445,0 0.719667,0.0847 0.282222,0.0847 0.437444,0.23989 0.169334,0.15522 0.225778,0.381 0.07056,0.21166 0.07056,0.49388 z" />
      <path
         id="path3085"
         style="fill:url(#linearGradient3102);stroke:none"
         d="m 96.509419,173.5807 q -0.550334,0 -1.058334,-0.19755 -0.493889,-0.19756 -0.874889,-0.62089 -0.366888,-0.42334 -0.592666,-1.07245 -0.211667,-0.64911 -0.211667,-1.56633 0,-0.40922 0.05645,-0.90311 0.05644,-0.508 0.197555,-1.016 0.141111,-0.508 0.395111,-0.98778 0.254,-0.47978 0.635,-0.84667 0.395111,-0.381 0.931334,-0.60677 0.550333,-0.22578 1.284111,-0.22578 0.705555,0 1.128888,0.254 0.437445,0.23989 0.550334,0.84667 0.02822,-0.55034 0.05644,-0.95956 0.02822,-0.40922 0.04233,-0.762 0.02822,-0.35278 0.05644,-0.70556 0.02822,-0.35277 0.05644,-0.80433 0.01411,-0.31044 0.07056,-0.36689 0.02822,-0.0282 0.07056,-0.0282 0.04233,-0.0141 0.155222,-0.0141 h 0.550332 q 0.42334,0 0.70556,0.0988 0.28222,0.0988 0.45156,0.26811 0.16933,0.16933 0.23988,0.39511 0.0706,0.21167 0.0706,0.45155 0,0 -0.0282,0.35278 -0.0282,0.35278 -0.0706,0.94545 -0.0423,0.57855 -0.0988,1.32644 -0.0564,0.74789 -0.11288,1.55222 -0.0564,0.79023 -0.11289,1.58045 -0.0564,0.77611 -0.11289,1.43933 -0.0564,0.64911 -0.0988,1.12889 -0.0282,0.46567 -0.0423,0.62089 -0.0282,0.16933 -0.0706,0.22578 -0.0423,0.0564 -0.23989,0.0564 h -0.508001 q -0.296333,0 -0.564445,-0.0423 -0.254,-0.0564 -0.451555,-0.16934 -0.183445,-0.127 -0.296333,-0.32455 -0.09878,-0.21167 -0.09878,-0.53622 -0.254,0.53622 -0.776111,0.87488 -0.508,0.33867 -1.284111,0.33867 z m 1.227666,-6.16655 q -0.719666,0 -1.072444,0.635 -0.338667,0.62089 -0.338667,1.67922 0,0.36689 0.04233,0.71966 0.05644,0.35278 0.183444,0.635 0.127,0.28223 0.338667,0.45156 0.225777,0.16933 0.564444,0.16933 0.606778,0 1.016,-0.59266 0.409222,-0.59267 0.409222,-1.86267 0,-0.35278 -0.04233,-0.67733 -0.04233,-0.33867 -0.169333,-0.59267 -0.127,-0.254 -0.352778,-0.40922 -0.225778,-0.15522 -0.578556,-0.15522 z" />
      <path
         id="path3087"
         style="fill:url(#linearGradient3104);stroke:none"
         d="m 104.94059,173.5807 q -0.62089,0 -1.24178,-0.15522 -0.60678,-0.15522 -1.10067,-0.53622 -0.47978,-0.381 -0.79022,-1.016 -0.31045,-0.635 -0.31045,-1.59456 0,-0.35278 0.0564,-0.84666 0.0564,-0.49389 0.21167,-1.016 0.16933,-0.52212 0.45155,-1.03012 0.29633,-0.52211 0.762,-0.93133 0.46567,-0.40922 1.12889,-0.66322 0.66322,-0.254 1.58044,-0.254 0.73378,0 1.24178,0.16933 0.508,0.16934 0.81845,0.46567 0.31044,0.28222 0.45155,0.66322 0.14111,0.381 0.14111,0.81845 0,0.64911 -0.26811,1.10066 -0.254,0.45156 -0.67733,0.762 -0.40922,0.29634 -0.91722,0.46567 -0.508,0.16933 -1.00189,0.26811 -0.49389,0.0847 -0.91722,0.11289 -0.40923,0.0141 -0.635,0.0141 0,0.26811 0.0706,0.53622 0.0847,0.254 0.23989,0.45156 0.15522,0.19755 0.40922,0.32455 0.254,0.127 0.62089,0.127 0.36689,0 0.56445,-0.11289 0.21166,-0.127 0.33866,-0.26811 0.127,-0.15522 0.21167,-0.26811 0.0988,-0.127 0.254,-0.127 0.0705,0 0.23989,0.0423 0.18344,0.0282 0.36689,0.14112 0.18344,0.11288 0.32455,0.31044 0.14111,0.19756 0.14111,0.508 0,0.40922 -0.254,0.70556 -0.254,0.29633 -0.66322,0.47977 -0.39511,0.18345 -0.889,0.26811 -0.49389,0.0847 -0.95955,0.0847 z m 0.26811,-6.16655 q -0.31045,0 -0.53623,0.18344 -0.21166,0.16933 -0.36688,0.43745 -0.14112,0.26811 -0.22578,0.59266 -0.0706,0.32456 -0.11289,0.62089 0.87489,-0.0141 1.41111,-0.29633 0.55033,-0.28222 0.55033,-0.80434 0,-0.28222 -0.18344,-0.508 -0.16933,-0.22577 -0.53622,-0.22577 z" />
      <path
         id="path3089"
         style="fill:url(#linearGradient3106);stroke:none"
         d="m 107.93655,171.70392 q 0,-1.27 1.143,-1.98966 1.143,-0.71967 3.37256,-0.77611 0.0141,-0.15523 0.0141,-0.254 0.0141,-0.11289 0.0141,-0.26811 0,-0.45156 -0.16933,-0.71967 -0.16934,-0.26811 -0.70556,-0.26811 -0.29633,0 -0.47978,0.0847 -0.18344,0.0847 -0.29633,0.23989 -0.11289,0.14111 -0.18344,0.35278 -0.0706,0.21167 -0.127,0.46567 -0.0282,0.127 -0.127,0.16933 -0.0988,0.0282 -0.31045,0.0282 -1.43933,0 -1.43933,-1.08655 0,-0.43745 0.19755,-0.83256 0.21167,-0.39511 0.60678,-0.67733 0.40922,-0.29633 1.016,-0.46567 0.60678,-0.16933 1.41111,-0.16933 1.56634,0 2.27189,0.64911 0.70556,0.64911 0.70556,1.83444 0,0.15523 -0.0423,0.56445 -0.0282,0.39511 -0.0847,0.84667 -0.0423,0.43744 -0.0847,0.83255 -0.0282,0.39511 -0.0282,0.55033 0,0.35278 0.127,0.508 0.127,0.14111 0.28222,0.19756 0.16933,0.0564 0.29633,0.0847 0.127,0.0282 0.127,0.14111 0,0.31044 -0.0847,0.635 -0.0847,0.32455 -0.28223,0.59266 -0.18344,0.26811 -0.52211,0.43745 -0.32455,0.16933 -0.80433,0.16933 -0.67733,0 -1.016,-0.32455 -0.33867,-0.32456 -0.45156,-0.90312 -0.33866,0.49389 -0.889,0.86078 -0.53622,0.36689 -1.41111,0.36689 -0.42333,0 -0.80433,-0.0988 -0.36689,-0.0988 -0.64911,-0.32455 -0.26811,-0.22578 -0.43745,-0.57856 -0.15522,-0.36689 -0.15522,-0.87489 z m 4.38856,-1.60866 q -0.36689,0 -0.71967,0.0564 -0.35278,0.0564 -0.635,0.18345 -0.26811,0.11288 -0.43744,0.31044 -0.16934,0.19756 -0.16934,0.47978 0,0.32455 0.19756,0.45155 0.21167,0.127 0.45155,0.127 0.22578,0 0.45156,-0.0988 0.22578,-0.0988 0.39511,-0.29634 0.18345,-0.21166 0.31045,-0.508 0.127,-0.29633 0.15522,-0.70555 z" />
      <path
         id="path3091"
         style="fill:url(#linearGradient3108);stroke:none"
         d="m 117.11671,173.56659 q -0.87489,0 -1.25589,-0.46567 -0.381,-0.46566 -0.381,-1.53811 0,-0.16933 0.0141,-0.42333 0.0282,-0.254 0.0564,-0.64911 0.0423,-0.40922 0.0988,-1.00189 0.0564,-0.59267 0.11289,-1.43933 0.0705,-0.84667 0.14111,-1.98967 0.0847,-1.143 0.16933,-2.65289 0.0141,-0.31044 0.0706,-0.36689 0.0423,-0.0423 0.22577,-0.0423 h 0.55034 q 0.42333,0 0.70555,0.0988 0.28222,0.0988 0.45156,0.26811 0.16933,0.16933 0.23989,0.39511 0.0705,0.21167 0.0705,0.45155 0,0.28223 -0.0423,0.81845 -0.0282,0.52211 -0.0847,1.18533 -0.0564,0.66322 -0.11289,1.38289 -0.0564,0.71967 -0.11289,1.38289 -0.0564,0.64911 -0.0988,1.17122 -0.0282,0.52211 -0.0282,0.79022 0,0.36689 0.127,0.52211 0.14112,0.15523 0.29634,0.22578 0.15522,0.0565 0.28222,0.0847 0.14111,0.0141 0.14111,0.0847 0,0.31044 -0.0706,0.62088 -0.0706,0.29634 -0.254,0.55034 -0.18345,0.23989 -0.508,0.39511 -0.31045,0.14111 -0.80434,0.14111 z" />
      <path
         id="path3093"
         style="fill:url(#linearGradient3110);stroke:none"
         d="m 122.22207,165.53737 q 1.19944,0 1.76388,0.47978 0.56445,0.46566 0.56445,1.19944 0,0.62089 -0.39511,0.94545 -0.381,0.32455 -1.11478,0.32455 -0.19756,0 -0.26811,-0.0423 -0.0706,-0.0423 -0.0706,-0.15522 0,-0.127 -0.0282,-0.28223 -0.0141,-0.16933 -0.0988,-0.31044 -0.0705,-0.15522 -0.23989,-0.254 -0.15522,-0.0988 -0.45155,-0.0988 -0.39511,0 -0.635,0.19756 -0.23989,0.18344 -0.23989,0.46566 0,0.29634 0.23989,0.47978 0.254,0.16933 0.62089,0.32456 0.381,0.15522 0.81844,0.32455 0.43745,0.15522 0.80434,0.42334 0.381,0.26811 0.62088,0.67733 0.254,0.39511 0.254,1.03011 0,1.016 -0.71966,1.66511 -0.71967,0.64911 -2.159,0.64911 -0.39511,0 -0.91722,-0.0705 -0.508,-0.0565 -0.97367,-0.18345 -0.46567,-0.14111 -0.79022,-0.36689 -0.31045,-0.22578 -0.31045,-0.56444 0,-0.127 0.0423,-0.31045 0.0564,-0.18344 0.15522,-0.35277 0.11289,-0.16934 0.254,-0.28223 0.15522,-0.127 0.36689,-0.127 0.16933,0 0.31044,0.0847 0.14111,0.0847 0.32456,0.18344 0.19755,0.0847 0.47977,0.16934 0.28223,0.0847 0.74789,0.0847 0.35278,0 0.62089,-0.0847 0.28222,-0.0847 0.28222,-0.381 0,-0.26811 -0.22577,-0.42334 -0.22578,-0.16933 -0.57856,-0.31044 -0.33867,-0.14111 -0.74789,-0.29633 -0.39511,-0.16934 -0.74789,-0.43745 -0.33866,-0.26811 -0.56444,-0.67733 -0.22578,-0.42333 -0.22578,-1.08656 0,-0.71966 0.28222,-1.21355 0.29634,-0.508 0.74789,-0.81845 0.46567,-0.31044 1.04422,-0.43744 0.57856,-0.14111 1.15712,-0.14111 z" />
    </g>
  </g>
</svg>
