<?xml version="1.0" encoding="iso-8859-1"?>
<!-- Generator: Adobe Illustrator 19.0.0, SVG Export Plug-In . SVG Version: 6.00 Build 0)  -->
<svg version="1.1" id="Capa_1" xmlns="http://www.w3.org/2000/svg" xmlns:xlink="http://www.w3.org/1999/xlink" x="0px" y="0px"
	 viewBox="0 0 512 512" style="enable-background:new 0 0 512 512;" xml:space="preserve">
<g>
	<g>
		<path d="M479.198,174.528l-17.014-23.243l17.014-23.244c3.237-4.422,3.546-10.117,0.807-14.863
			c-2.739-4.746-7.827-7.324-13.275-6.734l-28.637,3.114l-11.621-26.357c-2.211-5.015-6.988-8.13-12.468-8.13
			c-5.482,0-10.259,3.115-12.469,8.129l-11.621,26.357l-28.637-3.114c-5.455-0.59-10.535,1.988-13.276,6.734
			c-1.431,2.479-2.022,5.216-1.806,7.896c-24.405-14.517-52.564-23.356-82.658-24.618V55.588h88.584
			c18.19,0,32.989-14.799,32.989-32.988V12.538C385.109,5.625,379.484,0,372.57,0h-21.907c-4.146,0-7.505,3.36-7.505,7.505
			s3.359,7.505,7.505,7.505h19.434v7.591c0,9.914-8.065,17.978-17.979,17.978H159.939c-9.914,0-17.979-8.065-17.979-17.978V15.01
			h161.135c4.146,0,7.505-3.36,7.505-7.505S307.241,0,303.095,0H139.49c-6.915,0-12.539,5.625-12.539,12.538v10.063
			c0,18.19,14.799,32.988,32.989,32.988h88.585v40.867c-94.092,3.948-169.426,81.716-169.426,176.76
			c0,30.431,7.856,60.444,22.719,86.797c2.036,3.61,6.612,4.886,10.224,2.85c3.609-2.036,4.886-6.613,2.85-10.224
			c-7.437-13.187-12.942-27.381-16.416-42.091c10.155,11.916,24.068,22.645,41.208,31.563c9.691,5.042,20.232,9.387,31.388,13.017
			c11.681,31.523,29.98,58.317,52.985,76.864c-30.766-6.135-59.096-21.107-81.887-43.648c-2.945-2.914-7.697-2.889-10.613,0.059
			c-2.915,2.947-2.889,7.698,0.058,10.613c33.186,32.824,77.123,50.96,123.781,51.123c0.049,0.001,0.098,0.008,0.147,0.008
			c0.031,0,0.061-0.004,0.092-0.005c0.132,0,0.263,0.005,0.395,0.005c97.559,0,176.93-79.37,176.93-176.93
			c0-17.965-2.706-35.305-7.712-51.649c0.463-0.686,0.878-1.417,1.224-2.201l11.621-26.357l28.637,3.114
			c5.457,0.594,10.535-1.988,13.275-6.733C482.744,184.645,482.436,178.949,479.198,174.528z M146.611,328.796
			c-24.945-12.979-41.984-29.808-48.952-48.074h59.179c0.601,19.626,3.51,38.622,8.438,56.442
			C158.754,334.648,152.507,331.863,146.611,328.796z M99.85,265.711c7.998-16.317,24.123-31.267,46.761-43.045
			c5.475-2.848,11.25-5.457,17.268-7.828c-4.092,16.205-6.516,33.295-7.049,50.873H99.85z M169.189,196.969
			c-10.456,3.501-20.364,7.626-29.507,12.382c-17.98,9.354-32.409,20.703-42.672,33.324
			c12.38-64.587,63.249-115.658,127.731-128.334C200.127,134.082,180.844,163.031,169.189,196.969z M181.028,208.954
			c20.796-6.195,43.769-9.786,67.496-10.41v67.168h-76.672C172.488,245.869,175.663,226.726,181.028,208.954z M189.219,360.243
			c18.741,4.535,38.781,7.17,59.306,7.684v62.738C223.232,416.127,202.678,391.175,189.219,360.243z M248.525,352.919
			c-23.104-0.607-45.502-4.021-65.864-9.919c-6.337-19.279-10.091-40.335-10.8-62.279h76.664V352.919z M248.525,183.535
			c-21.301,0.534-42.094,3.335-61.439,8.192c13.365-33.108,34.763-60.024,61.439-75.623V183.535z M263.535,116.104
			c26.673,15.6,48.07,42.516,61.436,75.622c-19.345-4.856-40.136-7.657-61.436-8.191V116.104z M263.535,198.544
			c23.726,0.623,46.698,4.214,67.493,10.409c5.367,17.773,8.542,36.917,9.178,56.759h-76.671V198.544z M263.535,280.721h76.661
			c-0.722,21.951-4.545,43.03-10.997,62.339c-20.308,5.862-42.635,9.253-65.664,9.859V280.721z M263.535,367.927
			c20.411-0.511,40.342-3.121,58.993-7.61c-13.457,30.443-33.886,55.12-58.993,69.795V367.927z M286.973,432.158
			c23.338-18.583,41.906-45.414,53.769-76.947c11.242-3.642,21.86-8.015,31.619-13.092c17.156-8.924,31.083-19.664,41.242-31.593
			C399.049,372.005,349.348,420.037,286.973,432.158z M365.435,328.803c-5.935,3.087-12.227,5.888-18.797,8.415
			c5.01-17.845,7.968-36.862,8.58-56.496h59.182C407.43,298.991,390.386,315.823,365.435,328.803z M348.178,214.838
			c6.014,2.371,11.786,4.976,17.257,7.822c22.644,11.779,38.774,26.732,46.774,43.052h-56.981
			C354.694,248.133,352.27,231.042,348.178,214.838z M372.36,209.344c-9.138-4.753-19.042-8.876-29.493-12.375
			c-11.654-33.936-30.936-62.886-55.548-82.626c29.319,5.763,55.802,19.484,77.151,38.786l-15.665,21.398
			c-3.236,4.422-3.545,10.117-0.806,14.863c2.739,4.746,7.83,7.329,13.275,6.734l28.637-3.114l11.621,26.356
			c1.834,4.162,5.439,7.008,9.742,7.858c1.502,5.051,2.767,10.205,3.772,15.449C404.78,230.05,390.345,218.698,372.36,209.344z
			 M438.71,177.978c-5.943-0.65-11.535,2.588-13.943,8.049l-10.764,24.413l-10.765-24.414c-2.204-4.997-7.085-8.13-12.444-8.13
			c-0.495,0-0.996,0.027-1.498,0.082l-26.527,2.884l15.762-21.529c3.524-4.815,3.524-11.284,0-16.099l-15.76-21.529l26.525,2.884
			c5.929,0.645,11.535-2.589,13.943-8.049l10.765-24.413l10.764,24.414c2.408,5.459,8.004,8.691,13.942,8.048l26.526-2.884
			l-15.761,21.529c-3.524,4.815-3.524,11.284,0,16.099l15.761,21.529L438.71,177.978z"/>
	</g>
</g>
<g>
	<g>
		<path d="M256.03,467.508c-4.146,0-7.505,3.36-7.505,7.505v29.482c0,4.145,3.359,7.505,7.505,7.505c4.145,0,7.505-3.36,7.505-7.505
			v-29.482C263.535,470.869,260.175,467.508,256.03,467.508z"/>
	</g>
</g>
<g>
	<g>
		<path d="M118.642,125.215l-20.847-20.847c-2.931-2.931-7.682-2.931-10.614,0c-2.931,2.931-2.931,7.682,0,10.613l20.847,20.847
			c1.466,1.466,3.387,2.198,5.308,2.198s3.842-0.733,5.307-2.198C121.573,132.898,121.573,128.146,118.642,125.215z"/>
	</g>
</g>
<g>
	<g>
		<path d="M424.876,431.448l-20.847-20.847c-2.931-2.931-7.682-2.931-10.614,0c-2.931,2.931-2.931,7.682,0,10.613l20.847,20.847
			c1.466,1.466,3.387,2.198,5.307,2.198c1.919,0,3.841-0.734,5.307-2.198C427.807,439.131,427.807,434.379,424.876,431.448z"/>
	</g>
</g>
<g>
	<g>
		<path d="M54.23,265.709H24.748c-4.146,0-7.505,3.36-7.505,7.505c0,4.145,3.359,7.505,7.505,7.505H54.23
			c4.145,0,7.505-3.36,7.505-7.505C61.735,269.07,58.375,265.709,54.23,265.709z"/>
	</g>
</g>
<g>
	<g>
		<path d="M487.31,265.709h-29.482c-4.146,0-7.505,3.36-7.505,7.505c0,4.145,3.359,7.505,7.505,7.505h29.482
			c4.145,0,7.505-3.36,7.505-7.505C494.815,269.07,491.456,265.709,487.31,265.709z"/>
	</g>
</g>
<g>
	<g>
		<path d="M118.642,410.601c-2.93-2.931-7.681-2.931-10.614,0l-20.847,20.847c-2.931,2.93-2.931,7.682,0,10.613
			c1.466,1.466,3.386,2.198,5.308,2.198c1.92,0,3.842-0.734,5.307-2.198l20.847-20.847
			C121.573,418.284,121.572,413.532,118.642,410.601z"/>
	</g>
</g>
<g>
	<g>
		<path d="M505.806,350.104l-17.4-9.516l-9.515-17.399c0-0.001,0-0.001,0-0.001c-2.084-3.81-6.077-6.176-10.42-6.176
			c-4.342,0-8.335,2.367-10.419,6.177l-9.515,17.399l-17.4,9.516c-3.811,2.083-6.178,6.076-6.178,10.419s2.368,8.335,6.178,10.419
			l17.4,9.516l9.515,17.4c2.084,3.81,6.077,6.176,10.419,6.176c4.343,0,8.336-2.367,10.42-6.177l9.515-17.399l17.4-9.516
			c3.811-2.083,6.178-6.076,6.178-10.419S509.617,352.188,505.806,350.104z M480.397,367.731c-1.994,1.092-3.625,2.722-4.719,4.72
			l-7.206,13.177l-7.209-13.181c-1.092-1.994-2.723-3.624-4.719-4.717l-13.177-7.207l13.176-7.206
			c1.995-1.091,3.627-2.722,4.722-4.721l7.207-13.177l7.208,13.181c1.093,1.995,2.725,3.626,4.719,4.716l13.177,7.207
			L480.397,367.731z"/>
	</g>
</g>
<g>
	<g>
		<path d="M498.556,37.118l-13.246-7.245l-7.244-13.246c-1.919-3.509-5.596-5.689-9.595-5.689s-7.676,2.179-9.595,5.689
			l-7.244,13.246l-13.248,7.245c-3.508,1.919-5.688,5.596-5.688,9.595c0,4,2.179,7.676,5.689,9.595l13.247,7.245l7.244,13.247
			c1.919,3.509,5.596,5.689,9.595,5.689s7.676-2.18,9.595-5.691l7.244-13.246l13.246-7.244c3.509-1.919,5.69-5.596,5.69-9.595
			C504.246,42.714,502.066,39.036,498.556,37.118z M477.059,50.959c-1.838,1.007-3.341,2.51-4.345,4.346l-4.243,7.758l-4.247-7.766
			c-1.006-1.834-2.507-3.334-4.344-4.34l-7.759-4.243l7.758-4.243c1.835-1.004,3.338-2.505,4.349-4.348l4.243-7.758l4.242,7.757
			c1.006,1.839,2.51,3.343,4.349,4.348l7.758,4.244L477.059,50.959z"/>
	</g>
</g>
<g>
	<g>
		<path d="M65.875,335.79l-13.246-7.245L45.386,315.3c-1.919-3.509-5.596-5.689-9.595-5.689c-4,0-7.676,2.18-9.595,5.689
			l-7.246,13.247L5.703,335.79c-3.508,1.919-5.688,5.596-5.688,9.595s2.179,7.676,5.689,9.595l13.246,7.245l7.245,13.246
			c1.919,3.509,5.596,5.689,9.595,5.689c4,0,7.676-2.179,9.595-5.689l7.244-13.246l13.247-7.245
			c3.508-1.919,5.688-5.596,5.688-9.595C71.564,341.386,69.385,337.71,65.875,335.79z M44.382,349.629
			c-1.84,1.006-3.344,2.51-4.349,4.348l-4.243,7.758l-4.243-7.757c-1.006-1.839-2.51-3.343-4.348-4.348l-7.759-4.244l7.762-4.244
			c1.837-1.007,3.34-2.51,4.344-4.346l4.244-7.759l4.242,7.757c1.005,1.837,2.508,3.341,4.349,4.349l7.758,4.243L44.382,349.629z"/>
	</g>
</g>
<g>
</g>
<g>
</g>
<g>
</g>
<g>
</g>
<g>
</g>
<g>
</g>
<g>
</g>
<g>
</g>
<g>
</g>
<g>
</g>
<g>
</g>
<g>
</g>
<g>
</g>
<g>
</g>
<g>
</g>
</svg>
